<svg width="33" height="32" viewBox="0 0 33 32" fill="none" xmlns="http://www.w3.org/2000/svg">
<path d="M29.2497 0.204834H3.74887C2.82661 0.204834 1.94212 0.55328 1.28999 1.17352C0.63785 1.79375 0.271484 2.63498 0.271484 3.51213L0.271484 27.7656C0.271484 28.6427 0.63785 29.484 1.28999 30.1042C1.94212 30.7244 2.82661 31.0729 3.74887 31.0729H13.692V20.5784H9.12794V15.6389H13.692V11.8741C13.692 7.59181 16.3725 5.22641 20.478 5.22641C22.4441 5.22641 24.5001 5.55989 24.5001 5.55989V9.76291H22.2348C20.0027 9.76291 19.3065 11.0803 19.3065 12.4315V15.6389H24.2893L23.4924 20.5784H19.3065V31.0729H29.2497C30.1719 31.0729 31.0564 30.7244 31.7085 30.1042C32.3607 29.484 32.727 28.6427 32.727 27.7656V3.51213C32.727 2.63498 32.3607 1.79375 31.7085 1.17352C31.0564 0.55328 30.1719 0.204834 29.2497 0.204834Z" fill="#ABF2D3"/>
</svg>
