<svg width="33" height="32" viewBox="0 0 33 32" fill="none" xmlns="http://www.w3.org/2000/svg">
<path d="M30.6822 0.204834H2.85593C1.58089 0.204834 0.544922 1.20391 0.544922 2.43037V28.8474C0.544922 30.0738 1.58089 31.0729 2.85593 31.0729H30.6822C31.9573 31.0729 33.0005 30.0738 33.0005 28.8474V2.43037C33.0005 1.20391 31.9573 0.204834 30.6822 0.204834ZM10.354 26.6632H5.54366V11.9319H10.3613V26.6632H10.354ZM7.94885 9.92C6.40576 9.92 5.1597 8.728 5.1597 7.26728C5.1597 5.80656 6.40576 4.61456 7.94885 4.61456C9.48469 4.61456 10.738 5.80656 10.738 7.26728C10.738 8.73489 9.49193 9.92 7.94885 9.92ZM28.3857 26.6632H23.5753V19.4974C23.5753 17.7886 23.5391 15.5906 21.076 15.5906C18.5693 15.5906 18.1854 17.451 18.1854 19.3733V26.6632H13.375V11.9319H17.9898V13.9439H18.055C18.6997 12.7863 20.2718 11.5668 22.6118 11.5668C27.4801 11.5668 28.3857 14.6191 28.3857 18.5879V26.6632Z" fill="#ABF2D3"/>
</svg>
