<svg width="33" height="29" viewBox="0 0 33 29" fill="none" xmlns="http://www.w3.org/2000/svg">
<path d="M29.1194 7.45345C29.14 7.76681 29.14 8.08025 29.14 8.39361C29.14 17.9517 22.4471 28.9648 10.2144 28.9648C6.44579 28.9648 2.9449 27.7784 0 25.7191C0.535453 25.7862 1.05024 25.8086 1.6063 25.8086C4.71588 25.8086 7.57844 24.6671 9.86433 22.7196C6.94004 22.6525 4.48939 20.5707 3.64504 17.7055C4.05694 17.7726 4.46879 17.8174 4.9013 17.8174C5.49849 17.8174 6.09575 17.7278 6.65174 17.5712C3.6039 16.8996 1.31794 13.9897 1.31794 10.4753V10.3858C2.20343 10.9231 3.23319 11.2588 4.32458 11.3035C2.53293 10.0052 1.35914 7.78921 1.35914 5.28214C1.35914 3.93911 1.68858 2.70797 2.26523 1.63351C5.53963 6.02084 10.4615 8.88599 15.9806 9.19942C15.8776 8.66219 15.8158 8.10264 15.8158 7.54302C15.8158 3.55856 18.7813 0.312866 22.4675 0.312866C24.3827 0.312866 26.1126 1.18585 27.3276 2.59607C28.8309 2.2827 30.2725 1.6783 31.5493 0.850094C31.055 2.52896 30.0048 3.93917 28.625 4.83449C29.9636 4.67787 31.261 4.27486 32.4554 3.71531C31.5495 5.14785 30.4167 6.42371 29.1194 7.45345Z" fill="#ABF2D3"/>
</svg>
