<svg width="65" height="65" viewBox="0 0 65 65" fill="none" xmlns="http://www.w3.org/2000/svg">
<path d="M60.125 0H4.875C3.58207 0 2.34209 0.642018 1.42785 1.78482C0.513615 2.92762 0 4.47759 0 6.09375L0 46.7188C0 48.3349 0.513615 49.8849 1.42785 51.0277C2.34209 52.1705 3.58207 52.8125 4.875 52.8125H29.25V56.875H11.375C10.944 56.875 10.5307 57.089 10.226 57.4699C9.92121 57.8509 9.75 58.3675 9.75 58.9062V62.9688C9.75 63.5075 9.92121 64.0241 10.226 64.4051C10.5307 64.786 10.944 65 11.375 65H53.625C54.056 65 54.4693 64.786 54.774 64.4051C55.0788 64.0241 55.25 63.5075 55.25 62.9688V58.9062C55.25 58.3675 55.0788 57.8509 54.774 57.4699C54.4693 57.089 54.056 56.875 53.625 56.875H35.75V52.8125H60.125C61.4179 52.8125 62.6579 52.1705 63.5721 51.0277C64.4864 49.8849 65 48.3349 65 46.7188V6.09375C65 4.47759 64.4864 2.92762 63.5721 1.78482C62.6579 0.642018 61.4179 0 60.125 0V0ZM58.5 44.6875H6.5V8.125H58.5V44.6875Z" fill="#0CABC7"/>
</svg>
