<svg width="63" height="63" viewBox="0 0 63 63" fill="none" xmlns="http://www.w3.org/2000/svg">
<path d="M31.5 18.2969C28.8887 18.2969 26.336 19.0712 24.1647 20.522C21.9935 21.9728 20.3012 24.0348 19.3019 26.4474C18.3026 28.8599 18.0411 31.5146 18.5506 34.0758C19.06 36.637 20.3175 38.9895 22.164 40.836C24.0105 42.6825 26.363 43.94 28.9242 44.4494C31.4854 44.9589 34.1401 44.6974 36.5526 43.6981C38.9652 42.6988 41.0272 41.0065 42.478 38.8353C43.9288 36.664 44.7031 34.1113 44.7031 31.5C44.7031 27.9983 43.3121 24.64 40.836 22.164C38.36 19.6879 35.0017 18.2969 31.5 18.2969ZM31.5 34.5469C30.8974 34.5469 30.3083 34.3682 29.8072 34.0334C29.3062 33.6986 28.9157 33.2227 28.6851 32.666C28.4544 32.1092 28.3941 31.4966 28.5117 30.9056C28.6292 30.3145 28.9194 29.7716 29.3455 29.3455C29.7716 28.9194 30.3145 28.6292 30.9056 28.5117C31.4966 28.3941 32.1092 28.4544 32.666 28.6851C33.2227 28.9157 33.6986 29.3062 34.0334 29.8072C34.3682 30.3083 34.5469 30.8974 34.5469 31.5C34.5469 32.3081 34.2259 33.0831 33.6545 33.6545C33.0831 34.2259 32.3081 34.5469 31.5 34.5469ZM31.5 0.015625C14.1074 0.015625 0.015625 14.1074 0.015625 31.5C0.015625 48.8926 14.1074 62.9844 31.5 62.9844C48.8926 62.9844 62.9844 48.8926 62.9844 31.5C62.9844 14.1074 48.8926 0.015625 31.5 0.015625ZM31.5 47.75C28.2861 47.75 25.1443 46.797 22.472 45.0114C19.7997 43.2258 17.7169 40.6879 16.487 37.7186C15.257 34.7493 14.9352 31.482 15.5622 28.3298C16.1892 25.1776 17.7369 22.2821 20.0095 20.0095C22.2821 17.7369 25.1776 16.1892 28.3298 15.5622C31.482 14.9352 34.7493 15.257 37.7186 16.487C40.6879 17.7169 43.2258 19.7997 45.0114 22.472C46.797 25.1443 47.75 28.2861 47.75 31.5C47.75 35.8098 46.038 39.943 42.9905 42.9905C39.943 46.038 35.8098 47.75 31.5 47.75Z" fill="#0CABC7"/>
</svg>
