<svg width="65" height="65" viewBox="0 0 65 65" fill="none" xmlns="http://www.w3.org/2000/svg">
<path d="M44.6875 12.1875C44.6875 5.45645 39.2311 0 32.5 0C25.7689 0 20.3125 5.45645 20.3125 12.1875C20.3125 18.9186 25.7689 24.375 32.5 24.375C39.2311 24.375 44.6875 18.9186 44.6875 12.1875ZM29.655 30.6084C22.1229 25.9975 9.92266 24.7305 3.7832 24.3813C1.72021 24.2646 0 25.8362 0 27.8205V56.1057C0 57.9249 1.47139 59.442 3.36299 59.5397C8.90576 59.8305 20.1195 60.8956 27.87 64.7994C29.0596 65.3986 30.47 64.5823 30.47 63.2925V32.0633C30.4688 31.4704 30.1755 30.9271 29.655 30.6084ZM61.2168 24.3813C55.0786 24.7292 42.8772 25.9975 35.3463 30.6084C34.8258 30.9271 34.5325 31.492 34.5325 32.0849V63.2887C34.5325 64.5823 35.9468 65.3999 37.1401 64.7994C44.8894 60.8994 56.0968 59.8343 61.6383 59.5436C63.5299 59.4445 65.0013 57.9274 65.0013 56.1082V27.8205C65 25.8362 63.2798 24.2646 61.2168 24.3813Z" fill="#0CABC7"/>
</svg>
