<svg width="63" height="63" viewBox="0 0 63 63" fill="none" xmlns="http://www.w3.org/2000/svg">
<path d="M31.5 0.015625C14.1129 0.015625 0.015625 14.118 0.015625 31.5C0.015625 48.8922 14.1129 62.9844 31.5 62.9844C48.8871 62.9844 62.9844 48.8922 62.9844 31.5C62.9844 14.118 48.8871 0.015625 31.5 0.015625ZM31.5 13.9805C34.4448 13.9805 36.832 16.3677 36.832 19.3125C36.832 22.2573 34.4448 24.6445 31.5 24.6445C28.5552 24.6445 26.168 22.2573 26.168 19.3125C26.168 16.3677 28.5552 13.9805 31.5 13.9805ZM38.6094 46.2266C38.6094 47.0679 37.9273 47.75 37.0859 47.75H25.9141C25.0727 47.75 24.3906 47.0679 24.3906 46.2266V43.1797C24.3906 42.3384 25.0727 41.6562 25.9141 41.6562H27.4375V33.5312H25.9141C25.0727 33.5312 24.3906 32.8491 24.3906 32.0078V28.9609C24.3906 28.1196 25.0727 27.4375 25.9141 27.4375H34.0391C34.8804 27.4375 35.5625 28.1196 35.5625 28.9609V41.6562H37.0859C37.9273 41.6562 38.6094 42.3384 38.6094 43.1797V46.2266Z" fill="#0CABC7"/>
</svg>
