<svg width="60" height="65" viewBox="0 0 60 65" fill="none" xmlns="http://www.w3.org/2000/svg">
<path d="M30 32.5C39.4688 32.5 47.1429 25.2256 47.1429 16.25C47.1429 7.27441 39.4688 0 30 0C20.5312 0 12.8571 7.27441 12.8571 16.25C12.8571 25.2256 20.5312 32.5 30 32.5ZM13.9286 53.8281C13.9286 55.5166 15.3616 56.875 17.1429 56.875C18.9241 56.875 20.3571 55.5166 20.3571 53.8281C20.3571 52.1396 18.9241 50.7812 17.1429 50.7812C15.3616 50.7812 13.9286 52.1396 13.9286 53.8281ZM42.8571 36.6387V42.8594C47.7455 43.7988 51.4286 47.9121 51.4286 52.8125V58.1064C51.4286 59.0713 50.7054 59.9092 49.7009 60.0996L45.3884 60.9121C44.8125 61.0264 44.25 60.6709 44.1295 60.1123L43.7143 58.1191C43.5937 57.5732 43.9688 57.0273 44.558 56.9258L47.1429 56.4307V52.8125C47.1429 44.8398 34.2857 44.5479 34.2857 53.0537V56.4434L36.8705 56.9385C37.4464 57.0527 37.8214 57.5859 37.7143 58.1318L37.2991 60.125C37.1786 60.6709 36.6161 61.0264 36.0402 60.9248L31.8616 60.3916C30.8036 60.252 30.0134 59.4014 30.0134 58.373V52.8125C30.0134 47.9121 33.6964 43.8115 38.5848 42.8594V37.1211C38.2902 37.21 37.9955 37.2607 37.7009 37.3623C35.2902 38.1621 32.7054 38.6064 30.0134 38.6064C27.3214 38.6064 24.7366 38.1621 22.3259 37.3623C21.3348 37.0322 20.3304 36.8291 19.2991 36.7021V47.0615C22.3929 47.9375 24.6562 50.6289 24.6562 53.8408C24.6562 57.7637 21.2946 60.9502 17.1562 60.9502C13.0179 60.9502 9.65625 57.7637 9.65625 53.8408C9.65625 50.6289 11.9196 47.9375 15.0134 47.0615V36.8545C6.49554 38.2129 0 45.1699 0 53.625V59.3125C0 62.4482 2.69196 65 6 65H54C57.308 65 60 62.4482 60 59.3125V53.625C60 44.4844 52.3929 37.083 42.8571 36.6387Z" fill="#0CABC7"/>
</svg>
