<svg width="65" height="57" viewBox="0 0 65 57" fill="none" xmlns="http://www.w3.org/2000/svg">
<path d="M0 50.8438C0 54.208 2.42622 56.9375 5.41667 56.9375H59.5833C62.5738 56.9375 65 54.208 65 50.8438V28.5H0V50.8438ZM21.6667 42.2109C21.6667 41.373 22.276 40.6875 23.0208 40.6875H38.3681C39.1128 40.6875 39.7222 41.373 39.7222 42.2109V47.2891C39.7222 48.127 39.1128 48.8125 38.3681 48.8125H23.0208C22.276 48.8125 21.6667 48.127 21.6667 47.2891V42.2109ZM7.22222 42.2109C7.22222 41.373 7.8316 40.6875 8.57639 40.6875H16.7014C17.4462 40.6875 18.0556 41.373 18.0556 42.2109V47.2891C18.0556 48.127 17.4462 48.8125 16.7014 48.8125H8.57639C7.8316 48.8125 7.22222 48.127 7.22222 47.2891V42.2109ZM65 6.15625V12.25H0V6.15625C0 2.79199 2.42622 0.0625 5.41667 0.0625H59.5833C62.5738 0.0625 65 2.79199 65 6.15625Z" fill="#0CABC7"/>
</svg>
