<svg width="44" height="44" viewBox="0 0 44 44" fill="none" xmlns="http://www.w3.org/2000/svg">
<g filter="url(#filter0_d)">
<path fill-rule="evenodd" clip-rule="evenodd" d="M39.4803 16.83L36.2469 19.9944L39.4802 23.1587C40.4436 24.0708 39.9951 25.6926 38.7304 25.9951L34.3253 27.1194L35.5671 31.4798C35.9179 32.7337 34.7356 33.9172 33.4815 33.566L29.1226 32.3238L27.9987 36.7304C27.6937 38.0068 26.0422 38.4288 25.1633 37.4805L22 34.246L18.8366 37.4805C17.9486 38.4191 16.3134 38.0364 16.0012 36.7304L14.8774 32.3238L10.5184 33.566C9.26459 33.917 8.08193 32.734 8.43286 31.4798L9.67465 27.1194L5.26956 25.9951C4.00534 25.6927 3.5559 24.0712 4.51975 23.1587L7.75308 19.9944L4.51975 16.83C3.55632 15.918 4.00485 14.2961 5.26963 13.9937L9.67472 12.8694L8.43293 8.50899C8.08207 7.25504 9.26431 6.07161 10.5185 6.42275L14.8775 7.66496L16.0014 3.25841C16.3022 1.99968 17.9487 1.56958 18.8367 2.50832L22 5.76667L25.1634 2.50825C26.0616 1.55875 27.7013 2.01388 27.9988 3.25834L29.1226 7.66489L33.4816 6.42268C34.7354 6.07168 35.9181 7.25469 35.5671 8.50892L34.3254 12.8693L38.7304 13.9936C39.9947 14.296 40.4441 15.9175 39.4803 16.83ZM13.2636 20.9737L19.1136 27.3555C19.4651 27.7389 20.0349 27.7389 20.3864 27.3555L30.7364 16.0646C31.0879 15.6811 31.0879 15.0595 30.7364 14.6761L29.4636 13.2876C29.1122 12.9041 28.5423 12.9041 28.1908 13.2876L19.75 22.4957L15.8092 18.1967C15.4577 17.8132 14.8878 17.8132 14.5364 18.1967L13.2636 19.5852C12.9121 19.9686 12.9121 20.5903 13.2636 20.9737Z" fill="white"/>
</g>
<defs>
<filter id="filter0_d" x="0" y="0" width="44" height="44" filterUnits="userSpaceOnUse" color-interpolation-filters="sRGB">
<feFlood flood-opacity="0" result="BackgroundImageFix"/>
<feColorMatrix in="SourceAlpha" type="matrix" values="0 0 0 0 0 0 0 0 0 0 0 0 0 0 0 0 0 0 127 0"/>
<feOffset dy="2"/>
<feGaussianBlur stdDeviation="2"/>
<feColorMatrix type="matrix" values="0 0 0 0 0 0 0 0 0 0 0 0 0 0 0 0 0 0 0.6 0"/>
<feBlend mode="normal" in2="BackgroundImageFix" result="effect1_dropShadow"/>
<feBlend mode="normal" in="SourceGraphic" in2="effect1_dropShadow" result="shape"/>
</filter>
</defs>
</svg>
