<svg width="22" height="20" viewBox="0 0 22 20" fill="none" xmlns="http://www.w3.org/2000/svg">
<path d="M0 2.1875V11.5625C0 12.0803 0.461699 12.5 1.03125 12.5H4.46875C5.0383 12.5 5.5 12.0803 5.5 11.5625V2.1875C5.5 1.66973 5.0383 1.25 4.46875 1.25H1.03125C0.461699 1.25 0 1.66973 0 2.1875ZM1.71875 10C1.71875 9.48223 2.18045 9.0625 2.75 9.0625C3.31955 9.0625 3.78125 9.48223 3.78125 10C3.78125 10.5178 3.31955 10.9375 2.75 10.9375C2.18045 10.9375 1.71875 10.5178 1.71875 10ZM13.4062 20C12.539 20 12.1393 18.4651 11.9483 17.7424C11.7246 16.8961 11.4933 16.0209 10.8572 15.4415C9.46202 14.1711 8.73009 12.5522 7.02793 11.0231C6.97949 10.9796 6.94103 10.9278 6.91479 10.8706C6.88855 10.8135 6.87504 10.7522 6.87504 10.6903V2.33988C6.87504 2.08438 7.10033 1.8759 7.38134 1.87121C8.06158 1.85988 8.95804 1.51656 9.64369 1.23926C11.0081 0.687422 12.7062 0.000664063 14.781 0H14.9032C16.7413 0 18.9149 0.0161328 19.792 1.1616C20.1526 1.63258 20.2408 2.21762 20.0561 2.90504C20.757 3.57117 21.1331 4.81375 20.7601 5.82523C21.5139 6.74055 21.5826 8.01789 21.16 8.92949L21.1647 8.93379C21.6758 9.40055 22.0036 10.1548 22 10.8555C21.9933 12.0412 20.8761 13.125 19.4411 13.125H15.0701C15.3841 14.232 16.5 15.1614 16.5 16.8183C16.5 19.6875 14.4375 20 13.4062 20Z" fill="#0CABC7"/>
</svg>
