<svg width="20" height="16" viewBox="0 0 20 16" fill="none" xmlns="http://www.w3.org/2000/svg">
<path d="M9.9851 7.20315L16.6637 0.828149C17.1253 0.387524 17.8717 0.387524 18.3284 0.828149L19.4382 1.88752C19.8998 2.32815 19.8998 3.04065 19.4382 3.47659L14.7092 8.00002L19.4431 12.5188C19.9047 12.9594 19.9047 13.6719 19.4431 14.1078L18.3333 15.1719C17.8717 15.6125 17.1253 15.6125 16.6686 15.1719L9.99001 8.7969C9.5235 8.35627 9.5235 7.64377 9.9851 7.20315ZM0.556531 8.7969L7.2351 15.1719C7.69671 15.6125 8.44314 15.6125 8.89984 15.1719L10.0097 14.1125C10.4713 13.6719 10.4713 12.9594 10.0097 12.5235L5.28064 8.00002L10.0146 3.48127C10.4762 3.04065 10.4762 2.32815 10.0146 1.89221L8.90475 0.828149C8.44314 0.387524 7.69671 0.387524 7.24001 0.828149L0.561442 7.20315C0.0949243 7.64377 0.0949244 8.35627 0.556531 8.7969Z" fill="#F4B41A"/>
</svg>
