<svg width="20" height="16" viewBox="0 0 20 16" fill="none" xmlns="http://www.w3.org/2000/svg">
<path d="M10.0142 8.7969L3.3356 15.1719C2.874 15.6125 2.12757 15.6125 1.67087 15.1719L0.561049 14.1125C0.099442 13.6719 0.099442 12.9594 0.561049 12.5235L5.29498 8.00471L0.561049 3.48596C0.099442 3.04534 0.099442 2.33284 0.561049 1.8969L1.66596 0.828149C2.12757 0.387524 2.874 0.387524 3.33069 0.828149L10.0093 7.20315C10.4758 7.64377 10.4758 8.35627 10.0142 8.7969ZM19.4427 7.20315L12.7642 0.828149C12.3026 0.387524 11.5561 0.387524 11.0994 0.828149L9.98962 1.88752C9.52801 2.32815 9.52801 3.04065 9.98962 3.47659L14.7235 7.99534L9.98962 12.5141C9.52801 12.9547 9.52801 13.6672 9.98962 14.1031L11.0994 15.1625C11.561 15.6031 12.3075 15.6031 12.7642 15.1625L19.4427 8.78752C19.9044 8.35627 19.9044 7.64377 19.4427 7.20315Z" fill="#F4B41A"/>
</svg>
