<svg width="32" height="28" viewBox="0 0 32 28" fill="none" xmlns="http://www.w3.org/2000/svg">
<path d="M11.6 12.25H14.4V15.3125C14.4 15.4285 14.4421 15.5398 14.5172 15.6219C14.5922 15.7039 14.6939 15.75 14.8 15.75H17.2C17.3061 15.75 17.4078 15.7039 17.4828 15.6219C17.5579 15.5398 17.6 15.4285 17.6 15.3125V12.25H20.4C20.5061 12.25 20.6078 12.2039 20.6828 12.1219C20.7579 12.0398 20.8 11.9285 20.8 11.8125V9.1875C20.8 9.07147 20.7579 8.96019 20.6828 8.87814C20.6078 8.79609 20.5061 8.75 20.4 8.75H17.6V5.6875C17.6 5.57147 17.5579 5.46019 17.4828 5.37814C17.4078 5.29609 17.3061 5.25 17.2 5.25H14.8C14.6939 5.25 14.5922 5.29609 14.5172 5.37814C14.4421 5.46019 14.4 5.57147 14.4 5.6875V8.75H11.6C11.4939 8.75 11.3922 8.79609 11.3172 8.87814C11.2421 8.96019 11.2 9.07147 11.2 9.1875V11.8125C11.2 11.9285 11.2421 12.0398 11.3172 12.1219C11.3922 12.2039 11.4939 12.25 11.6 12.25ZM28.8 2.625C28.7982 1.92943 28.5447 1.26292 28.095 0.771076C27.6453 0.27923 27.036 0.00201993 26.4 0L5.6 0C4.96405 0.00201993 4.35467 0.27923 3.90498 0.771076C3.4553 1.26292 3.20185 1.92943 3.2 2.625V21H28.8V2.625ZM25.6 17.5H6.4V3.5H25.6V17.5ZM31.2 22.75H19.077C19.04 23.8334 18.3415 24.5 17.44 24.5H14.4C13.4655 24.5 12.75 23.5446 12.7615 22.75H0.8C0.587827 22.75 0.384344 22.8422 0.234315 23.0063C0.0842855 23.1704 0 23.3929 0 23.625L0 24.5C0.00250612 25.4274 0.340453 26.3161 0.940027 26.9718C1.5396 27.6276 2.35208 27.9973 3.2 28H28.8C29.6479 27.9973 30.4604 27.6276 31.06 26.9718C31.6595 26.3161 31.9975 25.4274 32 24.5V23.625C32 23.3929 31.9157 23.1704 31.7657 23.0063C31.6157 22.8422 31.4122 22.75 31.2 22.75Z" fill="#43CD43"/>
</svg>
