<svg width="15" height="16" viewBox="0 0 15 16" fill="none" xmlns="http://www.w3.org/2000/svg">
<path d="M14.2482 11.3065L11.0398 9.80645C10.9028 9.74273 10.7504 9.72931 10.6058 9.7682C10.4611 9.80709 10.332 9.89618 10.2377 10.0221L8.8169 11.9158C6.58704 10.7689 4.79251 8.81122 3.74115 6.37864L5.47708 4.82864C5.59272 4.72604 5.67457 4.58513 5.71023 4.42725C5.7459 4.26937 5.73344 4.10311 5.67474 3.95364L4.29974 0.453642C4.23532 0.29252 4.12138 0.160969 3.97757 0.0816733C3.83377 0.00237739 3.66911 -0.0196931 3.51198 0.0192674L0.532813 0.769267C0.381325 0.807429 0.246167 0.90048 0.149398 1.03323C0.0526296 1.16598 -3.48966e-05 1.3306 1.73485e-08 1.5002C1.73485e-08 9.51583 5.95547 16.0002 13.2917 16.0002C13.4472 16.0003 13.5982 15.9429 13.7199 15.8373C13.8416 15.7318 13.927 15.5843 13.962 15.419L14.6495 12.169C14.685 11.9967 14.6643 11.8164 14.5911 11.6589C14.5178 11.5015 14.3965 11.3769 14.2482 11.3065Z" fill="#43CD43"/>
</svg>
