<svg width="39" height="32" viewBox="0 0 39 32" fill="none" xmlns="http://www.w3.org/2000/svg">
<path d="M37.7706 10.6516C38.0639 10.3973 38.5 10.6352 38.5 11.0371V27.8125C38.5 29.9863 36.8833 31.75 34.8906 31.75H3.60938C1.6167 31.75 0 29.9863 0 27.8125V11.0453C0 10.6352 0.428613 10.4055 0.729394 10.6598C2.41377 12.0871 4.64707 13.9 12.317 19.9785C13.9036 21.2418 16.5806 23.8996 19.25 23.8832C21.9345 23.9078 24.6641 21.1926 26.1905 19.9785C33.8604 13.9 36.0862 12.0789 37.7706 10.6516ZM19.25 21.25C20.9945 21.2828 23.5061 18.8547 24.7693 17.8539C34.7478 9.9543 35.5072 9.26523 37.8082 7.29648C38.2443 6.92734 38.5 6.35313 38.5 5.74609V4.1875C38.5 2.01367 36.8833 0.25 34.8906 0.25H3.60938C1.6167 0.25 0 2.01367 0 4.1875V5.74609C0 6.35313 0.255664 6.91914 0.691797 7.29648C2.99277 9.25703 3.75225 9.9543 13.7307 17.8539C14.9939 18.8547 17.5055 21.2828 19.25 21.25Z" fill="white"/>
</svg>
