<svg width="39" height="42" viewBox="0 0 39 42" fill="none" xmlns="http://www.w3.org/2000/svg">
<path d="M37.4014 29.6786L28.9795 25.7411C28.6197 25.5739 28.2199 25.5386 27.8402 25.6407C27.4604 25.7428 27.1214 25.9767 26.8741 26.3072L23.1444 31.2783C17.291 28.2675 12.5803 23.1287 9.82051 16.7431L14.3773 12.6744C14.6809 12.4051 14.8957 12.0352 14.9894 11.6207C15.083 11.2063 15.0503 10.7699 14.8962 10.3775L11.2868 1.19002C11.1177 0.767072 10.8186 0.421751 10.4411 0.213599C10.0636 0.00544719 9.6314 -0.0524879 9.21895 0.0497835L1.39863 2.01853C1.00098 2.11871 0.646187 2.36297 0.39217 2.71144C0.138153 3.05991 -9.16037e-05 3.49202 4.55398e-08 3.93724C4.55398e-08 24.9783 15.6331 41.9997 34.8906 41.9997C35.2989 42 35.6952 41.8493 36.0147 41.5722C36.3343 41.2951 36.5583 40.9079 36.6502 40.474L38.4549 31.9427C38.548 31.4906 38.4938 31.0172 38.3015 30.6039C38.1092 30.1907 37.7909 29.8635 37.4014 29.6786Z" fill="white"/>
</svg>
