<svg width="39" height="42" viewBox="0 0 39 42" fill="none" xmlns="http://www.w3.org/2000/svg">
<path d="M0 38.0625C0 40.2363 1.84766 42 4.125 42H34.375C36.6523 42 38.5 40.2363 38.5 38.0625V15.75H0V38.0625ZM27.5 21.9844C27.5 21.443 27.9641 21 28.5312 21H31.9688C32.5359 21 33 21.443 33 21.9844V25.2656C33 25.807 32.5359 26.25 31.9688 26.25H28.5312C27.9641 26.25 27.5 25.807 27.5 25.2656V21.9844ZM27.5 32.4844C27.5 31.943 27.9641 31.5 28.5312 31.5H31.9688C32.5359 31.5 33 31.943 33 32.4844V35.7656C33 36.307 32.5359 36.75 31.9688 36.75H28.5312C27.9641 36.75 27.5 36.307 27.5 35.7656V32.4844ZM16.5 21.9844C16.5 21.443 16.9641 21 17.5312 21H20.9688C21.5359 21 22 21.443 22 21.9844V25.2656C22 25.807 21.5359 26.25 20.9688 26.25H17.5312C16.9641 26.25 16.5 25.807 16.5 25.2656V21.9844ZM16.5 32.4844C16.5 31.943 16.9641 31.5 17.5312 31.5H20.9688C21.5359 31.5 22 31.943 22 32.4844V35.7656C22 36.307 21.5359 36.75 20.9688 36.75H17.5312C16.9641 36.75 16.5 36.307 16.5 35.7656V32.4844ZM5.5 21.9844C5.5 21.443 5.96406 21 6.53125 21H9.96875C10.5359 21 11 21.443 11 21.9844V25.2656C11 25.807 10.5359 26.25 9.96875 26.25H6.53125C5.96406 26.25 5.5 25.807 5.5 25.2656V21.9844ZM5.5 32.4844C5.5 31.943 5.96406 31.5 6.53125 31.5H9.96875C10.5359 31.5 11 31.943 11 32.4844V35.7656C11 36.307 10.5359 36.75 9.96875 36.75H6.53125C5.96406 36.75 5.5 36.307 5.5 35.7656V32.4844ZM34.375 5.25H30.25V1.3125C30.25 0.590625 29.6313 0 28.875 0H26.125C25.3687 0 24.75 0.590625 24.75 1.3125V5.25H13.75V1.3125C13.75 0.590625 13.1313 0 12.375 0H9.625C8.86875 0 8.25 0.590625 8.25 1.3125V5.25H4.125C1.84766 5.25 0 7.01367 0 9.1875V13.125H38.5V9.1875C38.5 7.01367 36.6523 5.25 34.375 5.25Z" fill="white"/>
</svg>
