<svg width="22" height="24" viewBox="0 0 22 24" fill="none" xmlns="http://www.w3.org/2000/svg">
<path d="M11 0C4.92472 0 0 5.20453 0 11.625C0 18.0455 4.92472 23.25 11 23.25C17.0753 23.25 22 18.0455 22 11.625C22 5.20453 17.0753 0 11 0ZM11 20.25C6.48956 20.25 2.83871 16.3927 2.83871 11.625C2.83871 6.85828 6.48867 3 11 3C15.5104 3 19.1613 6.85734 19.1613 11.625C19.1613 16.3917 15.5113 20.25 11 20.25ZM11 5.625C7.86456 5.625 5.32258 8.31141 5.32258 11.625C5.32258 14.9386 7.86456 17.625 11 17.625C14.1354 17.625 16.6774 14.9386 16.6774 11.625C16.6774 8.31141 14.1354 5.625 11 5.625ZM11 14.625C9.43472 14.625 8.16129 13.2792 8.16129 11.625C8.16129 9.97078 9.43472 8.625 11 8.625C12.5653 8.625 13.8387 9.97078 13.8387 11.625C13.8387 13.2792 12.5653 14.625 11 14.625Z" fill="#0CABC7"/>
</svg>
