<svg width="19" height="20" viewBox="0 0 19 20" fill="none" xmlns="http://www.w3.org/2000/svg">
<path d="M17.9971 9.11406L9.97878 0.366797C9.53047 -0.122266 8.80322 -0.122266 8.35456 0.366797L0.33623 9.11406C-0.112077 9.60352 -0.112077 10.3965 0.33623 10.8859L8.35456 19.6332C8.80287 20.1227 9.53011 20.1227 9.97878 19.6332L17.9971 10.8859C18.4454 10.3965 18.4454 9.60352 17.9971 9.11406ZM14.3813 9.60469L11.366 12.641C11.1826 12.8258 10.8851 12.684 10.8851 12.4113V10.3125H7.44756V12.8125C7.44756 12.9852 7.31937 13.125 7.1611 13.125H6.01527C5.857 13.125 5.72881 12.9852 5.72881 12.8125V9.6875C5.72881 8.99727 6.24193 8.4375 6.87464 8.4375H10.8851V6.33867C10.8851 6.06641 11.1823 5.92422 11.366 6.10898L14.3813 9.14531C14.5041 9.26914 14.5041 9.48086 14.3813 9.60469Z" fill="#0CABC7"/>
</svg>
