<svg width="19" height="20" viewBox="0 0 19 20" fill="none" xmlns="http://www.w3.org/2000/svg">
<path d="M11.6941 7.24137C13.8335 9.57766 13.8041 13.3233 11.707 15.6238C11.7031 15.6285 11.6984 15.6336 11.6941 15.6382L9.28788 18.2632C7.16558 20.5785 3.71272 20.5782 1.59075 18.2632C-0.531551 15.9484 -0.531551 12.1812 1.59075 9.86637L2.91941 8.41691C3.27176 8.03254 3.87855 8.28801 3.89674 8.83121C3.91994 9.52348 4.03373 10.219 4.24371 10.8906C4.31482 11.118 4.26401 11.3696 4.10825 11.5395L3.63964 12.0507C2.6361 13.1455 2.60463 14.9281 3.59828 16.0336C4.60175 17.1499 6.2511 17.1566 7.26226 16.0535L9.66851 13.4289C10.678 12.3277 10.6737 10.5477 9.66851 9.45113C9.53599 9.30684 9.4025 9.19473 9.29823 9.11641C9.22446 9.06115 9.16356 8.98785 9.12037 8.90235C9.07718 8.81685 9.0529 8.72153 9.04948 8.62398C9.0353 8.21121 9.16936 7.78586 9.46835 7.45969L10.2222 6.63723C10.4199 6.42156 10.7301 6.39508 10.9593 6.56961C11.2218 6.76959 11.4677 6.99438 11.6941 7.24137ZM16.7406 1.73582C14.6187 -0.579102 11.1658 -0.579414 9.0435 1.73582L6.63725 4.36082C6.63295 4.36551 6.62829 4.37059 6.62436 4.37527C4.52727 6.67574 4.49787 10.4214 6.63725 12.7577C6.86365 13.0047 7.10953 13.2294 7.37205 13.4294C7.60129 13.6039 7.91145 13.5774 8.10911 13.3618L8.86299 12.5393C9.16198 12.2132 9.29604 11.7878 9.28186 11.375C9.27844 11.2775 9.25416 11.1822 9.21097 11.0967C9.16778 11.0112 9.10688 10.9379 9.03311 10.8826C8.92884 10.8043 8.79535 10.6922 8.66283 10.5479C7.65761 9.45129 7.65339 7.67137 8.66283 6.57016L11.0691 3.94555C12.0802 2.84246 13.7296 2.8491 14.7331 3.96547C15.7267 5.07094 15.6953 6.85352 14.6917 7.94828L14.2231 8.45949C14.0673 8.62941 14.0165 8.88098 14.0876 9.1084C14.2976 9.78004 14.4114 10.4755 14.4346 11.1678C14.4528 11.711 15.0596 11.9665 15.4119 11.5821L16.7406 10.1327C18.8629 7.81785 18.8629 4.05066 16.7406 1.73582Z" fill="#0CABC7"/>
</svg>
