<svg width="19" height="20" viewBox="0 0 19 20" fill="none" xmlns="http://www.w3.org/2000/svg">
<path d="M17.8102 14.1329L13.7998 12.2579C13.6285 12.1783 13.438 12.1615 13.2572 12.2101C13.0764 12.2587 12.9149 12.3701 12.7972 12.5274L11.0211 14.8946C8.2338 13.4609 5.99063 11.0139 4.67643 7.97313L6.84635 6.03563C6.9909 5.90738 7.09321 5.73124 7.13779 5.53389C7.18237 5.33654 7.1668 5.12871 7.09342 4.94188L5.37467 0.566871C5.29415 0.365468 5.15173 0.201029 4.97197 0.101909C4.79221 0.00278864 4.58638 -0.0247995 4.38997 0.0239012L0.666016 0.961402C0.476656 1.0091 0.307708 1.12542 0.186748 1.29136C0.065787 1.4573 -4.36208e-05 1.66306 2.16856e-08 1.87508C2.16856e-08 11.8946 7.44434 20.0001 16.6146 20.0001C16.809 20.0002 16.9977 19.9285 17.1499 19.7965C17.3021 19.6645 17.4087 19.4802 17.4525 19.2735L18.3118 15.211C18.3562 14.9957 18.3304 14.7703 18.2388 14.5735C18.1473 14.3767 17.9957 14.2209 17.8102 14.1329Z" fill="#0CABC7"/>
</svg>
