<svg width="22" height="20" viewBox="0 0 22 20" fill="none" xmlns="http://www.w3.org/2000/svg">
<path d="M4.46875 8.75H1.03125C0.461699 8.75 0 9.16973 0 9.6875V19.0625C0 19.5803 0.461699 20 1.03125 20H4.46875C5.0383 20 5.5 19.5803 5.5 19.0625V9.6875C5.5 9.16973 5.0383 8.75 4.46875 8.75ZM2.75 18.4375C2.18045 18.4375 1.71875 18.0178 1.71875 17.5C1.71875 16.9822 2.18045 16.5625 2.75 16.5625C3.31955 16.5625 3.78125 16.9822 3.78125 17.5C3.78125 18.0178 3.31955 18.4375 2.75 18.4375ZM16.5 3.18172C16.5 4.83859 15.3841 5.76797 15.0701 6.875H19.441C20.8761 6.875 21.9933 7.95883 22 9.14445C22.0036 9.84516 21.6757 10.5995 21.1647 11.0662L21.16 11.0705C21.5826 11.9821 21.5139 13.2595 20.76 14.1748C21.133 15.1863 20.757 16.4288 20.0561 17.095C20.2408 17.7824 20.1525 18.3674 19.7919 18.8384C18.9149 19.9839 16.7413 20 14.9032 20L14.781 20C12.7062 19.9993 11.0081 19.3125 9.64365 18.7607C8.958 18.4834 8.0615 18.1401 7.3813 18.1287C7.10029 18.1241 6.875 17.9156 6.875 17.6601V9.30969C6.875 9.18469 6.93009 9.06473 7.02788 8.97684C8.73005 7.44777 9.46198 5.82891 10.8571 4.55844C11.4932 3.97906 11.7246 3.10391 11.9482 2.25758C12.1393 1.53488 12.539 0 13.4062 0C14.4375 0 16.5 0.3125 16.5 3.18172Z" fill="#0CABC7"/>
</svg>
