<svg width="108" height="122" viewBox="0 0 108 122" fill="none" xmlns="http://www.w3.org/2000/svg">
<g clip-path="url(#clip0)">
<path d="M59.3408 1.47098L102.643 26.4802C106.049 28.447 107.984 31.821 107.984 35.7387V85.741C107.984 89.6747 106.033 93.0327 102.643 94.9995L59.3408 120.009C55.9349 121.976 52.0492 121.976 48.6432 120.009L5.34084 94.9995C1.93485 93.0327 0 89.6587 0 85.741V35.7387C0 31.805 1.95084 28.447 5.34084 26.4802L48.6432 1.47098C52.0492 -0.495859 55.9349 -0.495859 59.3408 1.47098Z" fill="#DBFFE4"/>
<path d="M77.8578 19.7161H37.3218C36.686 19.7161 36.1705 20.2315 36.1705 20.8674V98.7093C36.1705 99.3451 36.686 99.8606 37.3218 99.8606H77.8578C78.4937 99.8606 79.0091 99.3451 79.0091 98.7093V20.8674C79.0091 20.2315 78.4937 19.7161 77.8578 19.7161Z" fill="#43CD43"/>
<path d="M76.0669 30.3425H39.0968C38.6023 30.3425 38.2014 30.7434 38.2014 31.238V87.9564C38.2014 88.4509 38.6023 88.8519 39.0968 88.8519H76.0669C76.5615 88.8519 76.9624 88.4509 76.9624 87.9564V31.238C76.9624 30.7434 76.5615 30.3425 76.0669 30.3425Z" fill="white"/>
<path d="M67.3041 24.6572H47.8596C47.4092 24.6572 47.0441 25.0188 47.0441 25.4647C47.0441 25.9107 47.4092 26.2723 47.8596 26.2723H67.3041C67.7545 26.2723 68.1196 25.9107 68.1196 25.4647C68.1196 25.0188 67.7545 24.6572 67.3041 24.6572Z" fill="#DBFFE4"/>
<path d="M57.422 97.3662C58.9057 97.3662 60.1084 96.1635 60.1084 94.6798C60.1084 93.1962 58.9057 91.9934 57.422 91.9934C55.9383 91.9934 54.7356 93.1962 54.7356 94.6798C54.7356 96.1635 55.9383 97.3662 57.422 97.3662Z" fill="#DBFFE4"/>
<path d="M41.5114 26.4482C42.0148 26.4482 42.4228 26.0401 42.4228 25.5367C42.4228 25.0333 42.0148 24.6252 41.5114 24.6252C41.008 24.6252 40.5999 25.0333 40.5999 25.5367C40.5999 26.0401 41.008 26.4482 41.5114 26.4482Z" fill="#DBFFE4"/>
<path d="M20.5158 45.3491H62.395C63.7222 45.3491 64.8096 46.4365 64.8096 47.7637V71.7975C64.8096 73.1247 63.7222 74.212 62.395 74.212H20.5158C19.1886 74.212 18.1013 73.1247 18.1013 71.7975V47.7637C18.1013 46.4365 19.1886 45.3491 20.5158 45.3491Z" fill="#37D67A"/>
<path d="M64.8096 48.8669V55.535H18.1013V48.8669H64.8096Z" fill="#F4B41A"/>
<path d="M20.4839 58.3013H52.353V60.2201H20.4839V58.3013ZM62.411 58.3013H57.1182V60.2201H62.411V58.3013Z" fill="white"/>
<path d="M21.0276 63.3064H25.8407C26.1285 63.3064 26.3844 63.5463 26.3844 63.8501V68.5673C26.3844 68.8551 26.1445 69.111 25.8407 69.111H21.0276C20.7397 69.111 20.4839 68.8711 20.4839 68.5673V63.8501C20.4839 63.5622 20.7237 63.3064 21.0276 63.3064Z" fill="white"/>
<path d="M28.287 64.5376H43.2864V65.4491H28.287V64.5376ZM28.287 66.7923H43.2864V67.7037H28.287V66.7923Z" fill="white"/>
</g>
<defs>
<clipPath id="clip0">
<rect width="108" height="121.48" fill="white"/>
</clipPath>
</defs>
</svg>
