<svg width="108" height="122" viewBox="0 0 108 122" fill="none" xmlns="http://www.w3.org/2000/svg">
<g clip-path="url(#clip0)">
<path d="M59.375 1.45825L102.708 26.4583C106.125 28.4166 108.042 31.7916 108.042 35.7082V85.7082C108.042 89.6249 106.083 92.9999 102.708 94.9582L59.375 119.958C55.9583 121.917 52.0833 121.917 48.6667 119.958L5.33333 94.9582C1.91667 92.9999 0 89.6249 0 85.7082V35.7082C0 31.7916 1.95833 28.4166 5.33333 26.4583L48.6667 1.45825C52.0833 -0.500081 55.9583 -0.500081 59.375 1.45825Z" fill="#F0FFF4"/>
<path d="M54 101.333C76.1604 101.333 94.125 99.9156 94.125 98.1667C94.125 96.4178 76.1604 95 54 95C31.8396 95 13.875 96.4178 13.875 98.1667C13.875 99.9156 31.8396 101.333 54 101.333Z" fill="#60C7A2"/>
<path d="M12.2083 20.1665H95.8333C98.5833 20.1665 100.833 22.4165 100.833 25.1665V76.6665H7.20831V25.1665C7.20831 22.4165 9.45831 20.1665 12.2083 20.1665Z" fill="#60C7A2"/>
<path d="M10.5833 73.2915H97.4166V25.1666C97.4166 24.2916 96.7083 23.5833 95.8333 23.5833H12.2083C11.3333 23.5833 10.625 24.2916 10.625 25.1666V73.2915H10.5833Z" fill="#F4B41A"/>
<path d="M100.833 76.6665V82.1248C100.833 84.8748 98.375 87.1248 95.3333 87.1248H12.75C9.70833 87.1248 7.25 84.8748 7.25 82.1248V76.6665H100.875H100.833Z" fill="white"/>
<path d="M26.5417 39.0833H22.4167L19.5417 56.9165H22.125L22.625 53.6665H26.0834L26.5834 56.9165H29.4167L26.5417 39.0833ZM24.3334 42.2499L25.6667 51.2915H22.9584L24.2917 42.2499H24.3334Z" fill="white"/>
<path d="M34.8333 39.0834H30.7083V56.9167H33.5V50.2084H34.8333C37.625 50.2084 39 48.6667 39 45.7917V43.4584C39 40.5834 37.625 39.0417 34.8333 39.0417V39.0834ZM34.8333 41.5834C35.7083 41.5834 36.2083 42.0001 36.2083 43.2501V45.9167C36.2083 47.2084 35.7083 47.5834 34.8333 47.5834H33.5V41.5417H34.8333V41.5834Z" fill="white"/>
<path d="M40.2917 56.9582H43.125V39.0833H40.2917V56.9582Z" fill="white"/>
<path d="M60.4167 34.6667L60.0833 32.5417L63.4583 31.625L64.25 33.625C65 33.5417 65.75 33.5417 66.5417 33.625L67.3333 31.625L70.7083 32.5L70.4167 34.625C71.0833 34.9167 71.75 35.2917 72.375 35.75L74.0417 34.4167L76.5417 36.875L75.2083 38.5833C75.6667 39.2083 76.0417 39.875 76.375 40.5417L78.5 40.2083L79.4167 43.5833L77.4167 44.375C77.5 45.125 77.5 45.875 77.4167 46.6667L79.4167 47.4583L78.5417 50.8333L76.4167 50.5417C76.125 51.2083 75.75 51.875 75.2917 52.5L76.625 54.1667L74.1667 56.6667L72.4583 55.3333C71.8333 55.7917 71.1667 56.1667 70.5 56.5L70.8333 58.625L67.4583 59.5417L66.6667 57.5417C65.9167 57.625 65.1667 57.625 64.375 57.5417L63.5833 59.5417L60.2083 58.6667L60.5 56.5417C59.8333 56.25 59.1667 55.875 58.5417 55.4167L56.875 56.75L54.375 54.2917L55.7083 52.5833C55.25 51.9583 54.875 51.2917 54.5417 50.625L52.4167 50.9583L51.5 47.5833L53.5 46.7917C53.4167 46.0417 53.4167 45.2917 53.5 44.5L51.5 43.7083L52.375 40.3333L54.5 40.625C54.7917 39.9583 55.1667 39.2917 55.625 38.6667L54.2917 37L56.75 34.5L58.4583 35.8333C59.0833 35.375 59.75 35 60.4167 34.6667ZM61.5417 41.7083C63.6667 39.5417 67.1667 39.5417 69.3333 41.6667C71.5 43.7917 71.5 47.2917 69.375 49.4583C67.25 51.625 63.75 51.625 61.5833 49.5C59.4167 47.375 59.4167 43.875 61.5417 41.7083Z" fill="white"/>
<path d="M65.4583 38.5C69.375 38.5 72.5417 41.6667 72.5417 45.5833C72.5417 49.5 69.375 52.6667 65.4583 52.6667C61.5416 52.6667 58.3749 49.5 58.3749 45.5833C58.3749 41.6667 61.5416 38.5 65.4583 38.5ZM61.5416 41.75C63.6666 39.5833 67.1666 39.5833 69.3333 41.7083C71.5 43.8333 71.5 47.3333 69.375 49.5C67.25 51.6667 63.7499 51.6667 61.5832 49.5417C59.4166 47.4167 59.4166 43.9167 61.5416 41.75Z" fill="#F4B41A"/>
<path d="M82.8334 52.7499C83.25 52.6666 83.625 52.6666 84.0417 52.6666L84.625 51.4583L87.4584 52.4583L87.125 53.7499C87.4584 53.9999 87.75 54.2499 88.0417 54.5416L89.2917 54.0833L90.5834 56.7916L89.4167 57.4583C89.5 57.8749 89.5 58.2499 89.5 58.6666L90.7084 59.2499L89.7084 62.1249L88.4167 61.7916C88.1667 62.1249 87.9167 62.4166 87.625 62.7083L88.0834 63.9583L85.375 65.2499L84.7084 64.0833C84.2917 64.1666 83.9167 64.1666 83.5 64.1666L82.9167 65.3749L80.0417 64.3749L80.375 63.0833C80.0417 62.8333 79.75 62.5833 79.4584 62.2916L78.2084 62.7499L76.9167 60.0416L78.0834 59.3749C78 58.9583 78 58.5833 78 58.1666L76.7917 57.5833L77.7917 54.7499L79.0834 55.0833C79.3334 54.7499 79.5834 54.4583 79.875 54.1666L79.4167 52.9166L82.125 51.6249L82.7917 52.7916L82.8334 52.7499ZM81.5417 56.3333C82.7084 55.1666 84.625 55.1249 85.7917 56.2916C86.9584 57.4583 87 59.3749 85.8334 60.5416C84.6667 61.7083 82.75 61.7499 81.5834 60.5833C80.4167 59.4166 80.375 57.4999 81.5417 56.3333Z" fill="white"/>
<path d="M83.7084 54.1665C86.0833 54.1665 88 56.0832 88 58.4582C88 60.8332 86.0833 62.7498 83.7084 62.7498C81.3334 62.7498 79.4167 60.8332 79.4167 58.4582C79.4167 56.0832 81.3334 54.1665 83.7084 54.1665ZM81.5834 56.3332C82.75 55.1665 84.6667 55.1248 85.8333 56.2915C87 57.4582 87.0417 59.3748 85.875 60.5415C84.7084 61.7082 82.7917 61.7498 81.625 60.5832C80.4584 59.4165 80.4167 57.4998 81.5834 56.3332Z" fill="#F4B41A"/>
<path d="M54 83.4165C54.9435 83.4165 55.7084 82.6517 55.7084 81.7081C55.7084 80.7646 54.9435 79.9998 54 79.9998C53.0565 79.9998 52.2917 80.7646 52.2917 81.7081C52.2917 82.6517 53.0565 83.4165 54 83.4165Z" fill="#C6CBD6"/>
<path d="M64.7917 95L72.75 97.5417H35.25L41.6667 95V87.125H64.7917V95Z" fill="#F0FFF4"/>
<path d="M64.7917 95L41.6667 87.125H64.7917V95Z" fill="#C6CBD6"/>
<path d="M41.6667 95H64.7917L72.75 97.5417V98.625H54H35.25V97.5417L41.6667 95Z" fill="#F0FFF4"/>
</g>
<defs>
<clipPath id="clip0">
<rect width="108" height="121.5" fill="white"/>
</clipPath>
</defs>
</svg>
