<svg width="108" height="122" viewBox="0 0 108 122" fill="none" xmlns="http://www.w3.org/2000/svg">
<g clip-path="url(#clip0)">
<path d="M59.3315 1.45229L102.648 26.4712C106.05 28.4212 108 31.8235 108 35.7236V85.7198C108 89.6615 106.05 93.0222 102.648 94.9723L59.3315 119.991C55.9293 121.941 52.0292 121.941 48.627 119.991L5.31078 94.9723C1.90855 93.0222 -0.0415039 89.62 -0.0415039 85.7198V35.7236C-0.0415039 31.782 1.90855 28.4212 5.31078 26.4712L48.627 1.45229C52.0292 -0.497769 55.9293 -0.497769 59.3315 1.45229Z" fill="#DBFFE4"/>
<path d="M44.0215 49.7058C29.1264 49.7058 17.0941 60.2444 17.0941 73.231C17.0941 79.8695 20.2474 85.8856 25.3092 90.1591C19.1686 95.2625 13.194 94.8061 13.194 94.8061C18.8782 99.2041 28.0061 97.0051 33.6073 94.9306C36.8021 96.0923 40.3288 96.7561 44.0215 96.7561C58.9166 96.7561 70.9489 86.2175 70.9489 73.231C70.9489 60.2444 58.8751 49.7058 44.0215 49.7058Z" fill="#43CD43"/>
<path d="M44.0215 49.7058C41.4906 49.7058 39.0426 49.9962 36.7192 50.5771C39.831 60.5764 50.2866 67.9203 62.7338 67.9203C65.2647 67.9203 67.7126 67.6299 70.0361 67.049C66.9243 57.0497 56.4687 49.7058 44.0215 49.7058Z" fill="#5D718F"/>
<path d="M63.6466 19.4177C78.5417 19.4177 90.574 29.9563 90.574 42.9429C90.574 49.5814 87.4207 55.5975 82.3588 59.871C88.4994 64.9744 94.4741 64.518 94.4741 64.518C88.7899 68.916 79.6619 66.717 74.0607 64.6424C70.8659 65.8042 67.3392 66.468 63.6466 66.468C48.7514 66.468 36.7192 55.9294 36.7192 42.9429C36.7192 29.9563 48.7929 19.4177 63.6466 19.4177Z" fill="#ABF2D3"/>
<path d="M49.2908 36.6362H76.1766C77.3798 36.6362 77.3798 38.4618 76.1766 38.4618H49.2908C48.0876 38.4618 48.0876 36.6362 49.2908 36.6362ZM48.9174 48.544H64.8497C65.555 48.544 65.555 50.3696 64.8497 50.3696H48.9174C48.212 50.3696 48.212 48.544 48.9174 48.544ZM49.2908 42.6109H76.1766C77.3798 42.6109 77.3798 44.4365 76.1766 44.4365H49.2908C48.0876 44.4365 48.0876 42.6109 49.2908 42.6109Z" fill="white"/>
<path d="M30.4956 70.4097H57.3815C58.5847 70.4097 58.5847 72.2353 57.3815 72.2353H30.4956C29.2923 72.2353 29.2923 70.4097 30.4956 70.4097ZM30.1221 82.3175H46.0545C46.7599 82.3175 46.7599 84.1431 46.0545 84.1431H30.1221C29.4168 84.1431 29.4168 82.3175 30.1221 82.3175ZM30.4956 76.3843H57.3815C58.5847 76.3843 58.5847 78.2099 57.3815 78.2099H30.4956C29.2923 78.2099 29.2923 76.3843 30.4956 76.3843Z" fill="white"/>
</g>
<defs>
<clipPath id="clip0">
<rect width="108" height="121.443" fill="white"/>
</clipPath>
</defs>
</svg>
