<svg width="108" height="122" viewBox="0 0 108 122" fill="none" xmlns="http://www.w3.org/2000/svg">
<g clip-path="url(#clip0)">
<path d="M59.3469 1.47223L102.654 26.477C106.054 28.4403 108 31.8111 108 35.7363V85.7418C108 89.6684 106.054 93.0392 102.654 95.0012L59.3469 120.006C55.9465 121.969 52.0535 121.969 48.6531 120.006L5.34624 95.0012C1.9458 93.0379 0 89.667 0 85.7418V35.7363C0 31.8098 1.9458 28.4389 5.34624 26.477L48.6531 1.47223C52.0535 -0.491068 55.9465 -0.491068 59.3469 1.47223Z" fill="#F0FFF4"/>
<path d="M53.7517 25.9897C49.2075 56.4161 68.6076 48.758 69.5644 56.0999V65.3781C68.6063 72.7199 49.2075 65.0632 53.7517 95.4882H72.9729H92.194C96.7383 65.0618 77.3395 72.7199 76.3814 65.3781V56.0999C77.3395 48.758 96.7383 56.4161 92.194 25.9897H72.9729H53.7517Z" fill="white"/>
<path d="M56.4603 35.7983C55.8899 41.3626 56.6137 44.4118 60.8719 47.745C64.1144 50.2828 68.9094 50.4268 71.6486 53.6039C72.5312 54.2592 73.4152 54.2283 74.2991 53.6039C77.0397 50.4268 81.8334 50.2828 85.0758 47.745C89.334 44.4118 90.0578 41.3639 89.4874 35.7983H56.459H56.4603ZM73.0304 55.0962C73.7878 55.0962 74.404 55.7112 74.404 56.4701C74.404 57.2277 73.7892 57.844 73.0304 57.844C72.2729 57.844 71.6567 57.2291 71.6567 56.4701C71.6567 55.7125 72.2716 55.0962 73.0304 55.0962ZM73.0304 67.0792C73.7878 67.0792 74.404 67.6941 74.404 68.4531C74.404 69.2107 73.7892 69.8256 73.0304 69.8256C72.2729 69.8256 71.6567 69.2107 71.6567 68.4531C71.6567 67.6941 72.2716 67.0792 73.0304 67.0792ZM73.0304 63.084C73.7878 63.084 74.404 63.6989 74.404 64.4579C74.404 65.2168 73.7892 65.8318 73.0304 65.8318C72.2729 65.8318 71.6567 65.2168 71.6567 64.4579C71.6567 63.7003 72.2716 63.084 73.0304 63.084ZM73.0304 59.0901C73.7878 59.0901 74.404 59.705 74.404 60.4626C74.404 61.2202 73.7892 61.8365 73.0304 61.8365C72.2729 61.8365 71.6567 61.2216 71.6567 60.4626C71.6567 59.705 72.2716 59.0901 73.0304 59.0901ZM57.1061 91.6816H88.8403C85.3408 64.1887 60.5584 63.8913 57.1061 91.6816Z" fill="#F4B41A"/>
<path d="M48.1951 56.8365C48.7319 57.0007 49.2486 57.216 49.737 57.4758L51.7903 56.0492L54.8097 59.0707L53.3848 61.1245C53.6444 61.613 53.8584 62.1285 54.0239 62.6669L56.4835 63.1097V67.3815L54.0239 67.8243C53.8597 68.3613 53.6444 68.8781 53.3848 69.3667L54.811 71.4205L51.7917 74.4407L49.7384 73.014C49.25 73.2738 48.7346 73.4891 48.1964 73.6533L47.7524 76.1136H43.4817L43.039 73.6533C42.5008 73.4891 41.9855 73.2738 41.4971 73.014L39.4451 74.4407L36.4244 71.4192L37.8507 69.3653C37.591 68.8768 37.3757 68.3613 37.2116 67.823L34.7533 67.3802V63.1083L37.2116 62.6655C37.3757 62.1285 37.591 61.6117 37.8507 61.1231L36.4244 59.0693L39.4451 56.0492L41.4984 57.4758C41.9868 57.216 42.5022 57.0007 43.0404 56.8365L43.483 54.3762H47.7537L48.1964 56.8365H48.1951ZM45.617 60.683C48.1359 60.683 50.1784 62.7261 50.1784 65.2456C50.1784 67.7651 48.1359 69.8081 45.617 69.8081C43.0982 69.8081 41.0557 67.7651 41.0557 65.2456C41.0557 62.7261 43.0982 60.683 45.617 60.683Z" fill="#ABF2D3"/>
<path d="M26.7032 28.9139C27.3194 29.0377 27.9209 29.1978 28.5076 29.3956L31.2095 25.7718L35.2812 28.1226L33.4916 32.2793C33.9585 32.6898 34.3985 33.1298 34.8103 33.5967L38.9654 31.807L41.3161 35.8789L37.6925 38.581C37.8903 39.1663 38.0517 39.7678 38.1742 40.3855L42.6657 40.9143V45.616L38.1755 46.1448C38.0517 46.7611 37.8903 47.3626 37.6925 47.948L41.3161 50.6501L38.9654 54.722L34.8089 52.9323C34.3985 53.3992 33.9572 53.8392 33.4916 54.251L35.2812 58.4077L31.2095 60.7585L28.5062 57.1334C27.9209 57.3312 27.3194 57.494 26.7032 57.6165L26.1744 62.1082H21.4729L20.9441 57.6178C20.3278 57.494 19.7264 57.3339 19.1397 57.1347L16.4378 60.7585L12.3661 58.4077L14.1557 54.251C13.6888 53.8406 13.2488 53.4006 12.837 52.9336L8.68055 54.7233L6.32984 50.6514L9.95347 47.948C9.75567 47.3626 9.5942 46.7611 9.47175 46.1448L4.98022 45.616V40.9143L9.4704 40.3855C9.5942 39.7692 9.75432 39.1677 9.95347 38.581L6.32984 35.8789L8.68055 31.807L12.837 33.5967C13.2474 33.1298 13.6874 32.6898 14.1543 32.2793L12.3647 28.1226L16.4364 25.7718L19.1397 29.397C19.725 29.1992 20.3265 29.0377 20.9428 28.9139L21.4716 24.4221H26.173L26.7018 28.9139H26.7032ZM23.8236 33.5644C29.1804 33.5644 33.5239 37.9068 33.5239 43.2652C33.5239 48.6222 29.1817 52.9659 23.8236 52.9659C18.4669 52.9659 14.1234 48.6235 14.1234 43.2652C14.1234 37.9082 18.4656 33.5644 23.8236 33.5644Z" fill="#ABF2D3"/>
<path d="M23.8246 55.1594C30.3936 55.1594 35.7188 49.8342 35.7188 43.2652C35.7188 36.6963 30.3936 31.3711 23.8246 31.3711C17.2557 31.3711 11.9305 36.6963 11.9305 43.2652C11.9305 49.8342 17.2557 55.1594 23.8246 55.1594Z" fill="white"/>
<path d="M13.3658 42.87H15.831V43.6587H13.3658V42.8687V42.87ZM33.9178 43.6573H31.4526V42.8687H33.9178V43.6573ZM23.2468 53.5393V51.0739H24.0354V53.5393H23.2468ZM24.0354 32.9854V35.4508H23.2468V32.9854H24.0354Z" fill="#37D67A"/>
<path d="M23.8152 36.9138C24.122 36.9138 24.3723 37.164 24.3723 37.4721V42.8868H29.7885C30.0953 42.8868 30.3456 43.137 30.3456 43.4438C30.3456 43.7505 30.0953 44.0021 29.7885 44.0021H23.8152V43.4438H23.2568V37.4721C23.2568 37.1654 23.5071 36.9138 23.8152 36.9138Z" fill="#5D718F"/>
<path d="M23.826 44.3511C24.4257 44.3511 24.9119 43.8649 24.9119 43.2651C24.9119 42.6654 24.4257 42.1792 23.826 42.1792C23.2262 42.1792 22.7401 42.6654 22.7401 43.2651C22.7401 43.8649 23.2262 44.3511 23.826 44.3511Z" fill="#ABF2D3"/>
<path d="M42.9281 23.4358H103.017V25.9912H98.3516V95.491H103.017V98.0463H42.9281V95.491H47.5936V25.9912H42.9281V23.4358ZM96.0774 25.9912H49.8678V95.491H96.0774V25.9912Z" fill="#43CD43"/>
<path d="M53.7517 25.9897H92.1941C92.2923 26.6505 92.3771 27.2869 92.4524 27.9127H53.492C53.5687 27.2883 53.6521 26.6505 53.7504 25.9897H53.7517Z" fill="#F0FFF4"/>
</g>
<defs>
<clipPath id="clip0">
<rect width="108" height="121.479" fill="white"/>
</clipPath>
</defs>
</svg>
