<svg width="108" height="122" viewBox="0 0 108 122" fill="none" xmlns="http://www.w3.org/2000/svg">
<g clip-path="url(#clip0)">
<path d="M59.3408 1.47122L102.643 26.4804C106.049 28.4472 107.984 31.8212 107.984 35.7389V85.7413C107.984 89.6749 106.033 93.033 102.643 94.9998L59.3408 120.009C55.9349 121.976 52.0492 121.976 48.6432 120.009L5.34083 94.9998C1.93485 93.033 0 89.659 0 85.7413V35.7389C0 31.8052 1.95084 28.4472 5.34083 26.4804L48.6432 1.47122C52.0492 -0.495615 55.9349 -0.495615 59.3408 1.47122Z" fill="#F0FFF4"/>
<path d="M52.321 15.207C71.7175 15.207 87.4362 30.9257 87.4362 50.3222C87.4362 69.7187 71.7175 85.4374 52.321 85.4374C32.9245 85.4374 17.2058 69.7187 17.2058 50.3222C17.2058 30.9257 32.9245 15.207 52.321 15.207Z" fill="#F4B41A"/>
<path d="M52.321 15.207C66.2328 15.207 78.2576 23.2982 83.9343 35.0193C84.7978 38.2014 85.2455 41.5434 85.2455 45.0134C85.2455 66.2008 68.0717 83.3906 46.8682 83.3906C43.7181 83.3906 40.6479 83.0069 37.7217 82.2873C25.6008 76.7546 17.1898 64.5218 17.1898 50.3382C17.1898 30.9417 32.9085 15.223 52.305 15.223L52.321 15.207Z" fill="#43CD43"/>
<path d="M51.7454 28.4153C51.7294 29.6786 52.1611 29.2468 52.5769 29.8705C52.385 30.3982 52.353 29.9824 52.1451 30.5421C51.9533 31.0058 52.1931 30.59 52.0652 31.3896C52.385 31.4056 52.8807 31.2936 53.2965 31.2617C53.9041 31.2137 53.8881 31.1497 54.112 30.5261C53.7762 30.1103 53.4404 29.6946 53.0886 29.2788C52.6568 28.6072 53.0886 29.0709 52.9607 28.5113C52.8647 28.3194 52.7688 28.1115 52.6728 27.9196C52.0812 28.1115 52.1451 28.0635 51.7454 28.4153ZM74.26 22.8826C80.7842 28.1115 85.4054 35.6271 86.9085 44.214C86.7966 44.0541 86.7007 43.8303 86.5887 43.5264C85.9011 43.7503 85.8851 43.7663 85.0696 43.9102L85.0377 43.9582C84.7178 44.4219 85.0536 44.23 84.494 44.6938C83.8224 45.2534 83.3746 46.037 82.6231 46.5007C82.5271 47.3002 82.687 47.4761 82.4952 48.4356C82.4152 48.7874 82.0154 49.7308 81.5677 49.6668C81.4238 49.6349 80.8002 48.1158 80.6562 47.684C80.4164 46.9644 80.1286 46.4367 79.9527 45.6052C79.8567 45.1575 79.7768 44.31 79.6808 44.0222C79.2011 44.0861 79.2171 44.4059 78.7534 44.0701C78.4336 43.8303 78.5775 43.6864 78.4016 43.3346C78.0178 42.9668 77.618 42.615 77.2343 42.2472C76.9305 42.1513 75.7631 42.3112 75.2674 42.2632C74.372 42.1832 74.308 42.2312 73.7803 41.5276C72.8529 41.5756 72.9328 41.9274 72.0214 41.1438C71.4297 40.6321 71.5416 39.8326 70.6782 40.2804C70.6462 41.0159 70.998 41.1758 71.3338 41.5276C71.5736 41.7835 71.8615 41.9754 71.9894 42.3272C72.0054 42.3431 72.0533 42.663 72.0693 42.7109C72.9168 42.7589 73.1087 42.3591 73.5724 42.0233C74.0202 42.4391 73.5884 42.519 74.2281 42.8548C74.7398 43.1107 74.6438 42.9668 74.9796 43.3825C75.1555 43.9582 73.8283 45.4933 73.3806 45.7651C73.0448 45.989 72.8689 45.8611 72.565 46.1009C72.1173 46.4847 72.629 46.4207 71.8295 46.7086C70.982 47.0124 70.1505 47.668 69.271 47.716C69.0791 47.1883 68.8872 46.6606 68.6953 46.1329C68.1357 44.326 68.1517 45.0296 67.576 44.0861C67.3042 43.6864 67.4161 43.4145 67.2402 43.0627C67.1123 42.7909 66.9204 42.6789 66.7605 42.3431C66.5046 41.8314 66.2008 41.0319 65.6092 41.1119C65.4812 41.5116 66.1528 42.8868 66.3287 43.2226C66.5046 43.5584 66.7605 43.7023 66.8404 44.1821C66.9524 44.8377 66.8244 44.7577 67.1762 45.2055C67.9278 46.1169 67.1443 45.957 68.3116 46.8365C69.191 47.5081 68.9672 47.7 69.335 48.5955C69.9106 48.7554 71.6216 47.9878 71.9094 48.2117C72.2612 48.8353 71.5097 49.8267 71.3178 50.3704C70.6942 52.1774 69.5908 52.1614 68.7433 53.5366C68.2796 54.2881 68.0717 54.3841 67.64 55.2795C67.1602 56.3029 68.6154 59.1173 67.7359 60.3006C67.544 60.5724 66.9204 60.7323 66.1528 61.5479C65.3373 62.4433 66.1688 62.2834 65.865 63.7706C65.6252 64.1064 65.3213 64.1383 65.0175 64.3782C64.9056 64.73 65.0015 65.0018 64.8096 65.4336C64.6018 65.9613 64.5698 65.6734 64.282 66.1052C64.0741 66.441 64.0901 66.5689 63.8502 66.8727C63.6423 67.1446 63.5304 67.2245 63.3225 67.4164C62.3471 68.3119 60.2363 68.3439 60.0605 68.216C59.5647 67.8002 59.9005 67.6883 59.7726 67.0966C59.6607 66.5689 59.3729 66.1372 59.149 65.7374L59.133 65.6894C59.0211 65.4975 58.9251 65.3057 58.8612 65.1138C58.4614 63.8345 58.6053 62.8591 57.9017 61.5639C57.0063 59.8848 58.3974 59.0213 58.3335 58.0779C58.3175 57.8221 58.2215 57.6781 58.2056 57.4703C58.0297 56.4309 57.9337 55.4874 57.2461 54.6719C56.4786 53.7764 56.5745 54.0962 56.8304 52.6251C57.1502 50.9461 56.4306 51.3778 55.4072 51.3299C54.9115 49.7948 53.9521 50.5463 52.9767 50.9941C52.369 51.2659 52.1451 50.9141 51.4576 51.0101C49.9225 51.2179 51.1377 51.8735 49.091 50.2585C48.2435 49.5869 48.8031 49.9227 48.3074 49.0752C48.1315 48.7714 47.6198 48.3716 47.38 48.0518C46.6124 47.0764 47.5239 46.1009 47.396 44.9816C47.1561 42.9188 46.8203 44.7098 47.9876 42.2152C48.5952 40.888 49.5227 40.872 49.7466 40.2804C49.9544 39.7527 49.8105 39.3689 50.1943 38.8892C50.5301 38.4894 51.0098 38.5694 51.2017 37.9457C51.4735 37.1782 50.9618 37.0822 50.3862 37.0662C50.1463 36.2667 50.1463 36.4586 50.3222 35.723C50.4182 35.3073 50.3382 35.1154 50.4182 34.6996C50.642 33.6602 52.401 34.6996 52.9127 34.2679C53.1525 33.8201 53.1845 33.3884 52.9127 32.9726C52.6249 32.5569 52.2571 32.6049 52.0652 32.2051C52.4969 31.9173 52.1771 32.1731 52.5449 32.0932C52.9767 31.9972 52.9287 31.8693 53.4404 31.7733C53.9041 31.6774 54.1919 31.2617 54.6397 30.9738C55.2793 30.5581 54.9755 30.1903 55.759 30.0624C57.0063 29.8385 56.1907 29.8865 56.3347 28.7191C56.5265 28.6552 56.7024 28.5592 56.8783 28.4793C57.2781 28.991 56.7824 28.7831 57.2461 29.1349C57.374 29.0709 57.518 28.991 57.6459 28.927C57.5819 28.3674 57.3261 28.4793 57.1502 27.7757C56.5265 27.8716 56.3027 28.3993 55.807 28.2074C55.3273 28.0315 55.2953 27.328 55.3273 26.7523C55.5032 26.3206 56.4146 26.0807 56.7504 25.9847C57.3101 25.7929 57.2301 25.4251 57.7578 24.8974C58.4294 24.2258 57.9337 24.9134 58.2695 24.0339C59.0051 24.0019 58.6693 23.9859 59.101 23.7461L59.117 23.7301L59.165 23.7141C59.4208 23.6021 59.7566 23.5702 60.0924 23.4582C61.3237 23.0425 61.8354 23.2504 62.7309 23.6181C63.4345 23.906 65.5292 23.922 65.6891 24.8014C65.1774 25.3291 64.6977 24.9454 63.9621 24.9933C64.0901 25.6809 64.154 25.6809 64.7777 25.8728C64.8736 25.553 64.7297 25.6809 64.9056 25.473C65.1135 25.521 65.3053 25.553 65.5132 25.585C65.7211 24.8974 65.945 24.9933 66.6326 24.9134C66.5206 24.4337 66.3927 24.5776 66.6485 24.1938C67.3521 24.2738 66.7765 24.2098 67.1283 24.7695C67.624 24.7055 68.1037 24.1618 68.7913 24.0819C69.223 24.0339 69.191 24.1938 69.7987 24.1298C70.2944 24.0819 70.2784 23.89 70.7741 24.0979C70.95 23.7621 70.7741 23.778 71.2058 23.6981C71.8775 23.5862 72.4691 24.0019 73.1247 24.0819C72.645 23.4902 72.1813 23.6021 72.7729 22.6107C73.5245 22.4508 73.5884 22.5628 73.9242 23.1384C74.1161 23.0265 74.1961 22.9305 74.276 22.8826H74.26ZM64.8736 33.8681C64.5218 33.3884 64.5538 33.1326 63.8662 33.1166C63.5944 33.4044 63.2745 33.8361 63.1306 34.2839C62.9068 34.9555 63.0667 34.4918 63.0827 35.2113C63.0667 35.2433 63.0827 35.2753 63.0827 35.3073C63.0667 35.739 62.9707 35.2273 63.0347 35.6271C63.5624 35.5152 63.1626 35.5311 63.5464 35.4032C63.9142 35.2753 65.0495 34.9395 65.3853 35.0194C66.1688 35.1953 66.8085 35.819 67.6879 35.1953C67.64 34.4118 66.6965 34.108 66.0409 33.7722C66.0729 33.0526 66.2648 33.6123 66.2168 32.9247C65.9929 32.9087 65.865 32.8767 65.6411 32.9726C65.1294 33.1965 65.4173 33.2605 65.4173 33.3404C65.4333 33.7242 65.929 33.2605 65.4013 33.7402C65.2574 33.8681 65.0175 33.8681 64.8416 33.8841L64.8736 33.8681ZM59.085 34.4598C59.3889 34.6517 59.7726 34.8116 60.0125 35.0035C60.3003 35.803 59.9325 35.4192 60.5082 36.2507C60.828 36.6985 60.764 37.0183 61.0998 37.2741C61.7235 37.1942 61.1798 37.3701 61.5636 37.0023C61.6275 36.9383 61.8194 36.6985 61.8834 36.6185C61.6755 36.3147 61.5636 36.2827 61.3717 35.9629C62.0753 35.0354 62.3791 35.5631 62.539 36.1868C62.9707 37.8818 63.6583 37.3861 64.218 37.3061C64.7936 37.2261 64.2979 37.3221 64.8096 37.466C65.3053 37.5939 65.0655 37.466 65.4173 37.3701C66.6006 37.0822 65.6891 39.3689 65.5612 39.6247C64.9216 39.7047 65.0495 39.5608 64.5858 39.5128C63.6583 39.4169 64.6497 40.0725 62.443 39.3529C60.3323 38.6813 60.78 38.5214 60.3323 39.9925C59.8526 39.9605 59.8686 39.8646 59.4208 39.7207C59.2449 39.6567 59.149 39.6247 59.085 39.5928H59.069C58.8931 39.5288 59.069 39.5928 58.7013 39.241C58.3814 38.9371 57.5819 38.8572 57.0063 38.5694C57.0063 38.0896 57.438 37.6739 56.9103 37.0982C56.7344 37.0503 54.3518 37.1462 53.9681 37.2261C53.1845 37.3861 53.0566 38.0417 51.9852 37.8978C51.3936 37.8178 51.6015 37.8658 51.4576 37.53C51.6494 37.3381 51.4576 37.434 51.7774 37.3221C51.9053 37.2741 51.9533 37.2901 52.0652 37.2741C53.7922 37.0183 52.9127 36.1388 53.9841 35.3073C54.8795 34.5877 54.1759 35.3233 54.6716 34.4438C55.2793 34.3958 55.1993 34.6836 55.711 34.4278C56.1428 34.2039 55.9989 34.028 56.6065 34.012C57.1502 34.5557 57.0382 34.8755 57.9177 35.2913C58.2695 35.4512 58.4774 35.5471 58.7013 35.835C59.101 36.4106 58.7652 36.2187 58.9091 36.6185C58.9411 36.6025 58.9891 36.5865 59.0371 36.5705L59.0531 36.5545C59.5328 36.3307 58.8132 36.2507 59.5807 35.5791C59.3569 35.4192 59.197 35.3073 59.0531 35.2273L59.0371 35.2113C58.4454 34.8595 58.6853 35.1793 57.9177 34.2359C57.7098 33.9641 57.6619 33.9481 57.6779 33.5323C58.2215 33.4364 58.3335 33.8361 58.8292 34.2679C58.8931 34.3318 58.9731 34.3798 59.0531 34.4438L59.069 34.4598H59.085ZM69.4789 33.5803C69.5588 34.6836 70.2144 35.0994 70.6782 35.6111C70.6142 36.1388 70.5023 35.9949 70.5023 36.7304C71.0459 37.1302 71.4617 37.3701 72.1813 37.1782C72.2772 36.2987 72.0054 36.3467 71.7335 35.739C71.7815 35.6591 71.9094 35.5791 71.9254 35.5631C72.1333 35.2913 72.0214 35.6751 72.1333 35.2113C71.6056 35.0354 70.7581 34.5077 70.6782 33.7882C70.934 33.5803 70.8541 33.7082 71.0459 33.5803C71.4617 33.3084 71.1419 33.7242 71.3977 33.2605C71.1899 32.8447 70.95 32.7808 70.4383 32.9726C70.2144 33.0686 69.6228 33.4843 69.4949 33.5803H69.4789ZM71.0939 58.7015C70.5982 58.9574 70.5342 59.533 70.1665 59.8529C69.7667 60.2206 69.223 60.0447 69.0631 60.7323C68.8552 61.5798 69.3989 61.324 68.8073 62.4433C68.5994 62.8591 68.5834 63.8985 68.9032 64.2023C69.8786 65.1458 70.4063 62.7631 70.6302 62.0116C70.8061 61.4839 70.95 60.8763 71.1419 60.3806C71.3178 59.8529 71.5736 59.3891 71.0939 58.7015Z" fill="white"/>
<path d="M29.0229 24.0338C29.2308 23.8419 29.4546 23.666 29.6624 23.4741L29.6784 23.5061C29.7263 23.5701 29.7583 23.5701 29.8062 23.762C29.2308 23.9059 29.2308 24.0018 29.0229 24.0178V24.0338Z" fill="#9D9E9E"/>
<path d="M18.0214 42.7427C19.6044 35.547 23.3942 29.1667 28.6391 24.3696C29.0549 24.5135 29.5826 24.4175 29.9983 24.4016C30.1422 24.1297 30.2382 23.8899 30.494 23.7939C30.59 23.7619 30.7179 23.7459 30.8938 23.7619C30.9098 23.8899 30.9578 24.0338 30.9897 24.1617C30.9897 24.1777 31.0057 24.2576 31.0057 24.2417C31.0217 24.2257 31.0217 24.2896 31.0377 24.3216C31.7413 23.9059 31.1496 23.9059 31.5334 23.1543C30.9418 23.0424 31.0217 23.1063 30.6379 22.7226C31.0057 22.3228 31.6933 22.1949 32.205 22.2268C32.173 22.5946 31.9971 22.5786 32.1411 22.8825C32.5408 22.6266 32.8287 21.955 33.4843 22.0829C33.6122 22.1789 33.7561 22.2588 33.884 22.3388C33.5482 22.6586 33.0365 22.6746 32.6048 22.8505C32.4129 24.8013 33.2284 23.1703 32.9566 24.5135C33.4363 24.4815 33.916 24.1297 34.0919 23.7619C33.916 23.5221 33.6602 23.5221 33.5003 23.2502C33.6122 22.8825 33.8521 22.6106 34.2038 22.4507C34.4277 22.3388 34.7155 22.2748 35.0194 22.2748C38.6013 22.3068 36.8903 22.4667 37.9936 22.9624C38.2335 23.0743 38.6812 23.1223 38.8251 23.3462C39.049 23.682 38.8411 24.0178 39.1929 24.2896C39.5127 24.5295 39.5607 24.2736 39.9765 24.8013C39.8805 25.1051 39.6726 25.409 39.2409 25.409C38.6332 25.425 39.001 25.0092 38.3454 25.0732C38.3614 25.6808 38.969 25.9207 38.4094 26.2565C37.9137 26.5603 38.2335 26.1445 37.8657 26.3524C37.8497 26.3684 37.8177 26.3844 37.8017 26.3844C37.7857 26.4004 37.7538 26.4324 37.7378 26.4483C37.6738 26.5283 37.6098 26.5763 37.5619 26.6402C36.6664 26.4004 36.8263 26.5123 36.2986 25.9047C36.0907 25.6808 36.0588 25.6328 35.707 25.6488C35.4831 25.6488 35.1953 25.7608 34.9714 25.5529C35.4031 25.0092 35.627 25.5369 36.2666 25.2171C36.3786 25.1691 37.0822 24.6094 37.1941 24.4815C37.0022 24.0498 37.1781 24.4016 36.8903 24.1297C36.2666 23.4901 36.0747 23.65 35.2272 23.65C34.8275 24.1137 34.5237 24.6734 34.0919 24.9292C33.8361 25.0732 33.5163 25.1211 33.1005 24.9452C33.2924 25.7128 33.7881 25.1211 33.8361 26.0646C33.5163 26.0006 33.3404 25.8407 33.0046 25.9526C32.285 26.2245 32.9246 26.1925 32.9886 26.3364C32.9886 26.3524 33.3244 26.3844 32.9886 26.5123C32.6208 26.6402 32.9246 26.4324 32.205 26.0166C32.301 25.8407 32.4129 25.6488 32.5088 25.4569C31.9172 25.6328 31.1976 25.9207 30.51 26.2565C29.7265 26.6402 29.0069 27.088 28.5592 27.4877C28.5432 28.1593 28.6711 27.7116 28.7351 28.5111C29.7745 28.5751 29.4386 28.8949 30.494 29.1827C30.7019 29.2307 30.9578 29.2947 31.2776 29.3426C31.2776 29.8543 30.8298 30.2221 31.1496 30.7498C31.8852 31.2615 31.9012 30.2701 32.0771 29.6305C34.5556 29.1188 33.3563 28.3832 33.996 27.024C34.0919 26.8161 34.2198 26.6083 34.4277 26.3684C34.6196 26.3844 35.3872 26.4643 35.563 26.4963C36.1227 26.5923 35.8189 26.7362 36.4265 27.008C36.4106 27.4877 36.1707 28.1274 36.8903 28.0154C37.4339 27.9195 37.322 27.4877 37.9936 27.3758C38.2974 28.0954 38.2175 28.3992 38.3454 29.2467C39.9605 29.8703 39.2409 30.398 38.9371 31.5653C39.1449 31.6613 39.3528 31.7572 39.5607 31.8372C39.5447 32.173 39.5447 32.5088 39.5287 32.8446C39.4967 32.8446 37.8017 32.4768 37.6898 32.4448C37.9456 31.7092 38.4254 31.6932 38.7292 30.9417C38.1215 31.0536 38.1695 31.2455 37.7218 31.3734C37.322 31.4854 37.0182 31.4054 36.6024 31.4694C36.4585 31.9491 36.5864 31.0376 36.6344 31.6613C36.6504 31.9011 36.7623 31.6772 36.6184 31.9171C36.0588 31.6613 36.2506 31.0376 35.1953 31.6133C35.4351 31.7252 35.659 31.8212 35.9148 31.9171C35.8829 32.6047 35.8189 32.093 35.675 32.5407C35.3072 33.724 36.6504 32.9885 37.0022 32.9245C36.9063 33.5481 36.5225 33.5481 35.9948 33.724C35.4031 33.8999 35.2113 34.1558 34.7475 34.2517C34.7475 33.5162 34.6356 34.1398 34.9554 33.6281C34.4757 33.6761 34.1399 33.8839 33.6921 34.0758L33.6442 34.0918C33.0685 34.3317 32.9726 34.3637 32.9086 35.0992C32.4129 35.2591 31.8372 35.419 31.4854 35.7868C31.1337 36.1226 30.7819 36.4584 30.4461 36.7782C30.4141 36.8102 30.3821 36.8262 30.3661 36.8422C30.494 37.7696 30.3661 37.7856 29.8064 38.1534C29.3267 38.4572 29.1828 38.4572 28.7351 38.841C27.3279 40.1043 27.9995 39.5126 28.0794 41.6873C27.7916 41.5914 27.5038 41.4954 27.2319 41.3995C27.0241 39.9603 27.3119 40.4401 26.1446 40.1043C24.8973 39.7365 25.0572 40.3601 24.5455 40.456C23.9699 40.584 23.698 39.9284 22.8505 40.472C22.3868 40.7918 21.955 40.9997 21.8431 41.5594C21.7152 42.231 21.4114 42.7267 21.4434 43.4783C21.5233 45.509 23.3622 45.621 23.8419 44.6775C24.1618 44.0539 24.0818 43.7021 25.1052 43.862C25.2011 44.4057 25.0412 44.8055 24.9133 45.2052C24.8174 45.4451 24.5775 45.8928 24.7054 46.2286C25.441 46.5324 25.457 45.9728 26.4324 46.5484C26.4964 47.5079 26.0007 48.5952 26.7362 49.1549C27.3119 49.5706 27.3439 49.2029 27.8556 49.1069C28.4153 49.011 28.3193 49.3628 28.831 49.4427C29.1188 49.0749 29.0069 49.3148 29.1828 48.8671C29.5186 48.0995 29.6145 48.4673 30.4141 47.9876C30.494 47.9396 30.558 47.8916 30.6379 47.8437C30.7339 48.0356 30.8298 48.2114 30.9258 48.3873C31.5174 47.6998 31.5814 48.3714 32.253 48.5632C32.5408 48.6432 32.7487 48.6752 32.9086 48.6752C33.4043 48.6752 33.4523 48.4513 34.1239 48.6752C34.2038 48.7072 34.2998 48.7391 34.3957 48.7711C34.4117 48.7711 34.4437 48.7871 34.4437 48.8031C34.4597 48.8191 34.4917 48.8351 34.5077 48.8511C34.6196 48.979 34.6356 49.1069 34.7155 49.2348C35.1793 49.6826 35.643 50.1143 36.0907 50.5461C36.9862 50.8979 36.9862 50.2422 37.9936 51.2177C38.4254 51.6174 38.2335 51.6174 38.4733 52.1291C38.5053 52.2091 38.5693 52.289 38.6173 52.385C38.7132 52.6248 38.8091 52.8647 38.9051 53.0886C39.3688 53.6962 39.9924 53.3124 40.6321 53.9361C40.9999 54.2878 40.728 54.1919 41.5435 54.3358C42.8068 54.5437 42.3271 54.4318 43.2865 55.1513C43.6543 55.4232 43.7502 55.2633 44.102 55.5031C44.5817 56.1747 44.4538 56.9103 44.0541 57.5019C42.8068 59.3249 43.2385 59.021 43.1746 60.4602C43.1266 61.2917 42.8867 63.0027 42.1192 63.2106C39.3048 64.0101 40.9359 64.5538 40.2003 65.9449C39.9924 66.3447 39.8325 66.4406 39.6886 66.7605C39.129 68.0717 39.5127 68.5194 37.8497 68.2156C38.0096 68.4874 37.9137 68.3115 38.0576 68.5514C38.5533 69.3189 38.6332 69.8946 37.6258 70.0865C36.7783 70.2464 37.1461 70.0865 37.0662 71.0299C36.7464 71.1578 36.5864 71.0299 36.3786 71.2538C36.6664 71.7975 36.3946 71.3497 36.8903 71.6536C36.7943 71.9574 36.7304 72.2452 36.6504 72.533C36.4585 73.2366 36.4106 72.581 36.3306 73.4125C36.6184 73.5404 36.8263 73.5244 37.0822 73.8762C37.0502 74.1481 36.7783 74.8836 36.6984 75.2994C37.1141 75.923 37.4499 76.5946 38.3454 76.6586C38.3294 77.1863 38.4573 77.1223 38.0096 77.2342C37.6258 77.3302 36.8103 76.9624 36.4745 76.7865C35.8829 76.4667 35.3552 76.0509 34.9554 75.4593C34.7315 75.1235 34.8275 75.2834 34.5876 74.9796C34.1559 74.4359 34.3318 74.1801 34.2038 73.8123C34.1399 73.5884 33.7881 73.3645 33.932 72.661C33.964 72.4691 34.2838 71.5096 33.9 71.6855C33.5163 71.8454 34.1879 71.7815 33.6602 72.0213C33.5322 71.6855 33.4363 71.1738 33.3723 70.7581C33.2444 70.0545 33.0685 70.0225 32.9886 69.5908C32.8127 68.5834 33.2444 68.4874 32.7807 66.8244C32.4769 65.7211 32.5888 63.1146 32.269 61.7714C32.221 61.5635 32.1571 61.3716 32.0771 61.2437C31.7733 60.732 31.0377 60.5082 30.4301 60.0924C30.3981 60.0924 30.3661 60.0764 30.3661 60.0604C29.5506 59.4848 28.767 57.2301 28.1114 56.3826C27.8076 55.9828 27.6157 56.1587 27.4878 55.5191C27.3439 54.9275 27.5677 55.0394 27.7596 54.5437C26.7522 52.7048 29.0549 52.7368 28.5752 50.5301C28.4792 50.1303 28.1754 49.5547 27.9355 49.3788C27.4558 49.5866 27.6957 49.6986 27.4398 50.0983C27.0561 49.8745 26.6723 49.6666 26.3045 49.4427C25.1532 48.3234 25.7608 49.1389 25.441 48.4033C24.7374 46.8682 24.0818 47.7317 23.2503 46.9802C22.8825 46.6604 22.8185 46.1647 22.1949 46.2606C21.2675 46.3885 21.7792 46.5324 20.8197 46.0847C20.0042 45.7009 19.1407 45.2532 18.565 44.7255C18.5331 43.6382 18.8689 43.7341 18.0374 42.7267L18.0214 42.7427Z" fill="white"/>
<path d="M51.1856 30.4302C53.6962 30.4302 55.9668 31.4536 57.5978 33.0846C59.2449 34.7316 60.2523 37.0023 60.2523 39.4968C60.2523 42.0073 59.2289 44.278 57.5978 45.925C55.9508 47.572 53.6802 48.5794 51.1856 48.5794C48.6751 48.5794 46.4045 47.556 44.7575 45.925C43.1104 44.278 42.103 42.0073 42.103 39.4968C42.103 36.9863 43.1264 34.7156 44.7575 33.0846C46.4045 31.4376 48.6751 30.4302 51.1856 30.4302ZM55.5351 35.1634C54.4157 34.044 52.8806 33.3564 51.1856 33.3564C49.4906 33.3564 47.9556 34.044 46.8362 35.1634C45.7169 36.2827 45.0293 37.8178 45.0293 39.5128C45.0293 41.2078 45.7169 42.7429 46.8362 43.8622C47.9556 44.9816 49.4906 45.6691 51.1856 45.6691C52.8806 45.6691 54.4157 44.9816 55.5351 43.8622C56.6544 42.7429 57.342 41.2078 57.342 39.5128C57.342 37.8178 56.6544 36.2827 55.5351 35.1634Z" fill="#ABF2D3"/>
<path d="M51.1855 27.1841C54.5915 27.1841 57.6616 28.5593 59.9003 30.7979C62.1229 33.0206 63.5141 36.1068 63.5141 39.5128C63.5141 42.9188 62.1389 45.9889 59.9003 48.2276C57.6776 50.4503 54.5915 51.8415 51.1855 51.8415C47.7796 51.8415 44.7094 50.4663 42.4708 48.2276C40.2481 46.0049 38.8569 42.9188 38.8569 39.5128C38.8569 36.1068 40.2321 33.0366 42.4708 30.7979C44.6934 28.5753 47.7796 27.1841 51.1855 27.1841ZM58.8609 31.8373C56.8941 29.8705 54.1757 28.6552 51.1855 28.6552C48.1953 28.6552 45.4769 29.8705 43.5101 31.8373C41.5433 33.8042 40.328 36.5225 40.328 39.5128C40.328 42.503 41.5433 45.2214 43.5101 47.1882C45.4769 49.1551 48.1953 50.3703 51.1855 50.3703C54.1757 50.3703 56.8941 49.1551 58.8609 47.1882C60.8277 45.2214 62.043 42.503 62.043 39.5128C62.043 36.5225 60.8277 33.8042 58.8609 31.8373Z" fill="#ABF2D3"/>
<path d="M77.3621 50.7861C75.5872 50.6102 74.4518 52.0173 73.8922 53.7123L70.3902 64.2021L68.7432 62.6671L65.4811 58.3976L59.7725 48.2755L53.984 38.0895C53.0725 36.4905 51.0417 35.8668 49.4906 36.7783C47.9395 37.7058 47.3799 39.6886 48.2753 41.2877L58.1735 58.7813L57.4379 59.2611L55.2952 55.0875C54.4637 53.4565 52.3689 52.8968 50.8018 53.7763C49.2348 54.6558 48.7551 56.6546 49.5866 58.2856L51.9052 62.827L51.0737 63.3546L49.6185 60.3964C48.819 58.7494 46.6763 58.1737 45.1252 59.0852C43.5741 60.0126 43.1104 61.9475 43.9099 63.5945L45.541 66.9205L44.5495 67.5602L43.6541 65.8972C42.7746 64.2821 40.7118 63.6745 39.1607 64.5859C37.6097 65.5134 37.066 67.4802 37.9455 69.0953L39.8004 72.5332L40.0562 73.1569L51.5534 90.8265C53.1205 93.225 55.3272 94.7282 57.1021 95.2878C57.6138 95.4477 58.0935 95.5437 58.5093 95.5437L69.2709 114.109L89.435 102.707L76.4347 83.8386C79.5848 79.1054 79.7767 60.6682 80.2884 54.32C80.4323 52.529 79.1051 50.93 77.3301 50.7541L77.3621 50.7861Z" fill="#FED198"/>
<path d="M87.868 103.635L89.467 102.723L76.4667 83.8544C79.6169 79.1212 79.8088 60.6841 80.3205 54.3359C80.3524 54.0161 80.3205 53.6963 80.2565 53.4084C78.9613 62.3152 78.7854 78.7694 75.1395 83.8864L87.868 103.635Z" fill="#F0B97D"/>
<path d="M84.9897 92.5374L62.2513 105.778L67.0645 115.388L91.0181 101.86L84.9897 92.5374Z" fill="#37D67A"/>
<path d="M81.8875 88.8115L60.4602 101.14L62.9387 105.33L84.366 93.017L81.8875 88.8115Z" fill="white"/>
<path d="M67.0484 106.641C65.881 107.329 65.4812 108.832 66.1528 109.999C66.8405 111.166 68.3437 111.55 69.5111 110.862C70.6785 110.175 71.0783 108.672 70.4066 107.504C69.719 106.337 68.2158 105.953 67.0484 106.641Z" fill="white"/>
<path d="M49.107 40.2801L50.4981 42.8066L54.3199 40.6479L52.9287 38.1214C51.8414 36.1386 47.8277 38.4252 49.107 40.2801ZM75.4915 52.9126L74.66 56.2706L78.9455 57.4059L79.777 54.0479C80.3207 51.8732 76.0192 50.7539 75.4915 52.9126Z" fill="white"/>
</g>
<defs>
<clipPath id="clip0">
<rect width="108" height="121.48" fill="white"/>
</clipPath>
</defs>
</svg>
