<svg width="108" height="122" viewBox="0 0 108 122" fill="none" xmlns="http://www.w3.org/2000/svg">
<g clip-path="url(#clip0)">
<path d="M59.3479 1.47346L102.655 26.4787C106.055 28.4411 108.002 31.812 108.002 35.7383V85.744C108.002 89.6703 106.055 93.0413 102.655 95.0036L59.3479 120.009C55.9478 121.973 52.0555 121.973 48.6538 120.009L5.34625 95.0036C1.94615 93.0413 0 89.6703 0 85.744V35.7383C0 31.812 1.94615 28.4411 5.34625 26.4787L48.6538 1.47346C52.0539 -0.490502 55.9462 -0.490502 59.3479 1.47346Z" fill="#DBFFE4"/>
<path d="M12.0104 31.3215H95.7872V88.8868C95.7872 90.7892 94.2312 92.3452 92.3288 92.3452H15.4704C13.568 92.3452 12.0121 90.7892 12.0121 88.8868V31.3215H12.0104Z" fill="#DBFFE4"/>
<path d="M11.5781 29.1357H96.2178V86.4015C96.2178 88.8447 94.2199 90.8426 91.7767 90.8426H16.0209C13.5777 90.8426 11.5797 88.8447 11.5797 86.4015V29.1357H11.5781Z" fill="white"/>
<path d="M96.2178 29.134H11.5781V37.8856H96.2178V29.134Z" fill="#43CD43"/>
<path d="M96.4218 29.1357H11.5781V30.4556H96.4218V29.1357Z" fill="#8597B1"/>
<path d="M76.3354 42.354H82.1803V48.1973H76.3354V42.354Z" fill="#F4B41A"/>
<path d="M32.3333 42.354H38.1766V48.1973H32.3333V42.354Z" fill="#ABF2D3"/>
<path d="M41.1331 42.354H46.978V48.1973H41.1331V42.354Z" fill="#DBFFE4"/>
<path d="M49.9344 42.354H55.7778V48.1973H49.9344V42.354Z" fill="#DBFFE4"/>
<path d="M58.7343 42.354H64.5792V48.1973H58.7343V42.354Z" fill="#ABF2D3"/>
<path d="M67.5356 42.354H73.379V48.1973H67.5356V42.354Z" fill="#DBFFE4"/>
<path d="M23.5319 42.354H29.3752V48.1973H23.5319V42.354Z" fill="#ABF2D3"/>
<path d="M32.3333 51.5569H38.1766V57.4018H32.3333V51.5569Z" fill="#DBFFE4"/>
<path d="M41.1331 51.5569H46.978V57.4018H41.1331V51.5569Z" fill="#F4B41A"/>
<path d="M49.9344 51.5569H55.7778V57.4018H49.9344V51.5569Z" fill="#DBFFE4"/>
<path d="M58.7343 51.5569H64.5792V57.4018H58.7343V51.5569Z" fill="#ABF2D3"/>
<path d="M67.5356 51.5569H73.379V57.4018H67.5356V51.5569Z" fill="#F4B41A"/>
<path d="M76.3354 51.5569H82.1803V57.4018H76.3354V51.5569Z" fill="#DBFFE4"/>
<path d="M23.5319 51.5569H29.3752V57.4018H23.5319V51.5569Z" fill="#DBFFE4"/>
<path d="M32.137 60.7615H37.9803V66.6064H32.137V60.7615Z" fill="#ABF2D3"/>
<path d="M41.1331 60.7615H46.978V66.6064H41.1331V60.7615Z" fill="#DBFFE4"/>
<path d="M49.9344 60.7615H55.7778V66.6064H49.9344V60.7615Z" fill="#DBFFE4"/>
<path d="M58.7343 60.7615H64.5792V66.6064H58.7343V60.7615Z" fill="#DBFFE4"/>
<path d="M67.5356 60.7615H73.379V66.6064H67.5356V60.7615Z" fill="#DBFFE4"/>
<path d="M76.1392 60.5652H81.9841V66.4101H76.1392V60.5652Z" fill="#ABF2D3"/>
<path d="M23.5319 60.7615H29.3752V66.6064H23.5319V60.7615Z" fill="#F4B41A"/>
<path d="M32.3333 69.9644H38.1766V75.8093H32.3333V69.9644Z" fill="#ABF2D3"/>
<path d="M41.1331 69.9644H46.978V75.8093H41.1331V69.9644Z" fill="#DBFFE4"/>
<path d="M49.9344 69.9644H55.7778V75.8093H49.9344V69.9644Z" fill="#ABF2D3"/>
<path d="M58.7343 69.9644H64.5792V75.8093H58.7343V69.9644Z" fill="#ABF2D3"/>
<path d="M67.3394 69.9644H73.1827V75.8093H67.3394V69.9644Z" fill="#F4B41A"/>
<path d="M76.3354 69.9644H82.1803V75.8093H76.3354V69.9644Z" fill="#DBFFE4"/>
<path d="M23.5319 69.9644H29.3752V75.8093H23.5319V69.9644Z" fill="#DBFFE4"/>
<path d="M32.137 78.8345H37.9803V84.6755H32.137V78.8345Z" fill="#F4B41A"/>
<path d="M23.5319 78.8345H29.3752V84.6755H23.5319V78.8345Z" fill="#ABF2D3"/>
</g>
<defs>
<clipPath id="clip0">
<rect width="108" height="121.481" fill="white"/>
</clipPath>
</defs>
</svg>
