<svg width="108" height="122" viewBox="0 0 108 122" fill="none" xmlns="http://www.w3.org/2000/svg">
<g clip-path="url(#clip0)">
<path d="M59.3496 1.46655L102.657 26.474C106.062 28.4379 108 31.8045 108 35.7322V85.7344C108 89.6621 106.049 93.0287 102.657 94.9926L59.3496 120C55.9447 121.964 52.0553 121.964 48.6504 120L5.34325 94.9926C1.93836 93.0287 0 89.6621 0 85.7344V35.7322C0 31.8045 1.95112 28.4379 5.34325 26.474L48.6504 1.46655C52.0553 -0.497315 55.9447 -0.497315 59.3496 1.46655Z" fill="#DBFFE4"/>
<path d="M35.7322 46.5334H72.255C73.4537 46.5334 74.4357 47.5154 74.4357 48.7141V71.2221H33.5515V48.7141C33.5515 47.5154 34.5334 46.5334 35.7322 46.5334Z" fill="#F4B41A"/>
<path d="M35.0308 69.73H72.9564V48.7141C72.9564 48.3315 72.6376 48.0127 72.255 48.0127H35.7321C35.3496 48.0127 35.0308 48.3315 35.0308 48.7141V69.73Z" fill="#DBFFE4"/>
<path d="M74.4484 71.2095V73.5939C74.4484 74.7925 73.3645 75.7743 72.0382 75.7743H35.9617C34.6355 75.7743 33.5515 74.7925 33.5515 73.5939V71.2095H74.4357H74.4484Z" fill="white"/>
<path d="M43.7662 50.4868H64.2211H67.2689C67.6387 50.4868 67.9448 50.7929 67.9448 51.1627V55.1542V69.7429H40.0553V55.1542V51.1627C40.0553 50.7929 40.3614 50.4868 40.7312 50.4868H43.779H43.7662Z" fill="white"/>
<path d="M40.7184 50.4868H67.2689C67.6387 50.4868 67.9448 50.7929 67.9448 51.1627V52.5017H40.0553V51.1627C40.0553 50.7929 40.3614 50.4868 40.7312 50.4868H40.7184Z" fill="#F4B41A"/>
<path d="M52.4633 51.1753H65.9426C66.0446 51.1753 66.1211 51.2518 66.1211 51.3538V51.6854C66.1211 51.7874 66.0446 51.8639 65.9426 51.8639H52.4633C52.3613 51.8639 52.2848 51.7874 52.2848 51.6854V51.3538C52.2848 51.2518 52.3613 51.1753 52.4633 51.1753Z" fill="white"/>
<path d="M41.3943 51.0605C41.6111 51.0605 41.7769 51.2391 41.7769 51.4431C41.7769 51.6599 41.5983 51.8257 41.3943 51.8257C41.1775 51.8257 41.0117 51.6472 41.0117 51.4431C41.0117 51.2263 41.1903 51.0605 41.3943 51.0605Z" fill="#21D0C3"/>
<path d="M42.9117 51.0605C43.1285 51.0605 43.2943 51.2391 43.2943 51.4431C43.2943 51.6599 43.1158 51.8257 42.9117 51.8257C42.695 51.8257 42.5292 51.6472 42.5292 51.4431C42.5292 51.2263 42.7077 51.0605 42.9117 51.0605Z" fill="#FFE356"/>
<path d="M44.4421 51.0605C44.6589 51.0605 44.8247 51.2391 44.8247 51.4431C44.8247 51.6599 44.6462 51.8257 44.4421 51.8257C44.2254 51.8257 44.0596 51.6472 44.0596 51.4431C44.0596 51.2263 44.2381 51.0605 44.4421 51.0605Z" fill="#FF7069"/>
<path d="M41.5601 53.2285H66.44V61.4411H41.5601V53.2285Z" fill="#DBFFE4"/>
<path d="M45.2453 62.6401C46.1636 62.6401 46.9033 63.3797 46.9033 64.2977C46.9033 65.2157 46.1636 65.9553 45.2453 65.9553C44.3271 65.9553 43.5874 65.2157 43.5874 64.2977C43.5874 63.3797 44.3271 62.6401 45.2453 62.6401Z" fill="#ABF2D3"/>
<path d="M53.9936 62.6401C54.9118 62.6401 55.6514 63.3797 55.6514 64.2977C55.6514 65.2157 54.9118 65.9553 53.9936 65.9553C53.0755 65.9553 52.3358 65.2157 52.3358 64.2977C52.3358 63.3797 53.0755 62.6401 53.9936 62.6401Z" fill="#37D67A"/>
<path d="M62.7418 62.6401C63.66 62.6401 64.3996 63.3797 64.3996 64.2977C64.3996 65.2157 63.66 65.9553 62.7418 65.9553C61.8236 65.9553 61.084 65.2157 61.084 64.2977C61.084 63.3797 61.8236 62.6401 62.7418 62.6401Z" fill="#F4B41A"/>
<path d="M42.8735 66.4915H47.6174V66.7464H42.8735V66.4915ZM42.8735 68.1106H46.0616V68.3656H42.8735V68.1106ZM42.8735 67.3074H47.6174V67.5624H42.8735V67.3074Z" fill="#DCE3DB"/>
<path d="M51.6217 66.4915H56.3656V66.7464H51.6217V66.4915ZM51.6217 68.1106H54.8098V68.3656H51.6217V68.1106ZM51.6217 67.3074H56.3656V67.5624H51.6217V67.3074Z" fill="#DCE3DB"/>
<path d="M60.3699 66.4915H65.1138V66.7464H60.3699V66.4915ZM60.3699 68.1106H63.558V68.3656H60.3699V68.1106ZM60.3699 67.3074H65.1138V67.5624H60.3699V67.3074Z" fill="#DCE3DB"/>
<path d="M41.4325 61.9639H66.4399V62.0659H41.4325V61.9639Z" fill="#DBFFE4"/>
<path d="M53.9936 74.1552C54.4091 74.1552 54.746 73.8183 54.746 73.4028C54.746 72.9872 54.4091 72.6504 53.9936 72.6504C53.5781 72.6504 53.2412 72.9872 53.2412 73.4028C53.2412 73.8183 53.5781 74.1552 53.9936 74.1552Z" fill="#B6B6B8"/>
<path d="M58.7121 79.218L62.1807 80.3274H45.8066L48.6122 79.218V75.7876H58.7121V79.218Z" fill="#C2C2C4"/>
<path d="M58.712 79.218L48.6121 75.7876H58.712V79.218Z" fill="#B0B0B0"/>
<path d="M48.6122 79.2178H58.7121L62.1807 80.3272V80.7991H53.9937H45.8066V80.3272L48.6122 79.2178Z" fill="#DBFFE4"/>
<path d="M17.1137 88.9094H17.56L20.1742 87.4812L20.5951 85.8235C19.9702 85.1986 19.3326 84.1274 18.746 82.8268C18.695 82.8395 18.6567 82.8395 18.6057 82.8395C17.9171 82.8395 17.2284 82.0871 17.0754 81.1562C16.9606 80.4294 17.1902 79.8173 17.6365 79.575C17.0499 76.6038 16.6673 72.0259 21.7938 70.8909C24.8671 70.2151 25.9638 72.5869 26.1041 72.842C27.966 71.7963 29.1519 73.3648 29.458 74.1937C30.0063 75.6984 29.8278 78.4783 29.5473 79.7153C29.8533 80.0086 30.0063 80.5442 29.9043 81.1435C29.7513 82.0489 29.0882 82.8012 28.4123 82.814C27.8639 84.0127 27.1243 85.0456 26.3847 85.798L26.8055 87.4557H26.8437L29.3815 88.8839H29.8661C32.0977 88.8839 34.0744 90.0571 35.1328 91.7914C29.3177 99.4935 17.7385 99.8378 11.4899 92.5055C12.408 90.3759 14.5887 88.8712 17.1264 88.8712L17.1137 88.9094Z" fill="#37D67A"/>
<path d="M78.5036 88.9099H78.95L81.5641 87.4817L81.985 85.8239C81.3601 85.199 80.7225 84.1278 80.1359 82.8271C80.0849 82.8398 80.0466 82.8398 79.9956 82.8398C79.307 82.8398 78.6184 82.0874 78.4654 81.1565C78.3506 80.4296 78.5801 79.8175 79.0265 79.5752C78.4399 76.604 78.0573 72.0259 83.1837 70.8909C86.2569 70.2151 87.3536 72.587 87.4939 72.842C89.3557 71.7964 90.5416 73.3649 90.8477 74.1938C91.396 75.6986 91.2175 78.4785 90.937 79.7155C91.243 80.0088 91.396 80.5444 91.294 81.1438C91.141 82.0492 90.4779 82.8016 89.802 82.8143C89.2537 84.013 88.514 85.046 87.7744 85.7984L88.1952 87.4562H88.2335L90.7712 88.8844H91.2558C93.5001 88.8844 95.464 90.0576 96.5224 91.7919C93.7552 95.4646 89.3684 97.8365 84.4079 97.8365C79.7916 97.8365 75.6472 95.7706 72.8672 92.5061C73.7853 90.3764 75.966 88.8717 78.5036 88.8717V88.9099Z" fill="#F4B41A"/>
<path d="M47.8087 33.526H48.255L50.8693 32.0978L51.2901 30.44C50.6652 29.8151 50.0276 28.7439 49.441 27.4432C49.39 27.4559 49.3517 27.4559 49.3007 27.4559C48.6121 27.4559 47.9234 26.7035 47.7704 25.7726C47.6556 25.0457 47.8852 24.4336 48.3315 24.1913C47.7449 21.2072 47.3623 16.6419 52.4888 15.5069C55.5621 14.831 56.6588 17.203 56.7991 17.458C58.661 16.4123 59.8469 17.9809 60.153 18.8098C60.7013 20.3146 60.5228 23.0946 60.2423 24.3316C60.5483 24.6249 60.7013 25.1605 60.5993 25.7598C60.4463 26.6653 59.7832 27.4176 59.1073 27.4432C58.5589 28.6419 57.8193 29.6748 57.0797 30.4272L57.5005 32.085H57.5388L60.0765 33.5133H60.5611C62.7927 33.5133 64.7694 34.6865 65.8278 36.4208C63.0605 40.0935 58.6737 42.4655 53.713 42.4655C49.0967 42.4655 44.9521 40.3996 42.1721 37.135C43.0903 35.0053 45.271 33.5005 47.8087 33.5005V33.526Z" fill="#ABF2D3"/>
<path d="M54.4654 37.696V45.1562H53.9553V37.696H54.4654Z" fill="#FEFEFE"/>
<path d="M54.2104 38.9073C54.8795 38.9073 55.4219 38.365 55.4219 37.696C55.4219 37.027 54.8795 36.4846 54.2104 36.4846C53.5413 36.4846 52.9989 37.027 52.9989 37.696C52.9989 38.365 53.5413 38.9073 54.2104 38.9073Z" fill="#FEFEFE"/>
<path d="M22.4315 77.8785V59.3498V59.0947H22.6865H31.6514V59.6176H22.9415V77.8785H22.4187H22.4315ZM85.0329 77.8785V59.6176H75.6344V59.0947H85.288H85.543V59.3498V77.8785H85.0202H85.0329Z" fill="#FEFEFE"/>
<path d="M22.6865 79.0904C23.3555 79.0904 23.8979 78.548 23.8979 77.879C23.8979 77.2099 23.3555 76.6675 22.6865 76.6675C22.0174 76.6675 21.475 77.2099 21.475 77.879C21.475 78.548 22.0174 79.0904 22.6865 79.0904Z" fill="#FEFEFE"/>
<path d="M85.3007 79.0904C85.9698 79.0904 86.5122 78.548 86.5122 77.879C86.5122 77.2099 85.9698 76.6675 85.3007 76.6675C84.6316 76.6675 84.0892 77.2099 84.0892 77.879C84.0892 78.548 84.6316 79.0904 85.3007 79.0904Z" fill="#FEFEFE"/>
</g>
<defs>
<clipPath id="clip0">
<rect width="108" height="121.467" fill="white"/>
</clipPath>
</defs>
</svg>
