<svg width="108" height="122" viewBox="0 0 108 122" fill="none" xmlns="http://www.w3.org/2000/svg">
<g clip-path="url(#clip0)">
<path d="M59.3479 1.47951L102.655 26.5917C106.055 28.5624 108.002 31.9478 108.002 35.8909V86.1104C108.002 90.0535 106.055 93.4389 102.655 95.4096L59.3479 120.522C55.9478 122.494 52.0555 122.494 48.6538 120.522L5.34625 95.4096C1.94615 93.4389 0 90.0535 0 86.1104V35.8909C0 31.9478 1.94615 28.5624 5.34625 26.5917L48.6538 1.47951C52.0539 -0.492845 55.9462 -0.492845 59.3479 1.47951Z" fill="#DBFFE4"/>
<path d="M17.5024 49.5349H90.4976V102.458L59.3462 120.52C55.9461 122.493 52.0538 122.493 48.6521 120.52L17.5008 102.458V49.5349H17.5024Z" fill="#43CD43"/>
<path d="M54 105.015C61.6892 105.015 67.9226 98.7545 67.9226 91.0324C67.9226 83.3103 61.6892 77.0503 54 77.0503C46.3108 77.0503 40.0774 83.3103 40.0774 91.0324C40.0774 98.7545 46.3108 105.015 54 105.015Z" fill="white"/>
<path d="M54 103.507C60.8603 103.507 66.4217 97.922 66.4217 91.0324C66.4217 84.1428 60.8603 78.5576 54 78.5576C47.1397 78.5576 41.5783 84.1428 41.5783 91.0324C41.5783 97.922 47.1397 103.507 54 103.507Z" fill="#DBFFE4"/>
<path d="M45.6244 13.9155H62.3772C72.0399 13.9155 79.9411 21.8505 79.9411 31.5546V49.5334H69.9384V31.5546C69.9384 27.3952 66.5188 23.9611 62.3788 23.9611H45.6261C41.4844 23.9611 38.0665 27.3952 38.0665 31.5546V49.5334H28.0638V31.5546C28.0638 21.8505 35.9649 13.9155 45.6277 13.9155H45.6244Z" fill="white"/>
<path d="M53.9984 21.9333L44.8205 22C42.505 22.1496 36.096 23.7755 35.9114 31.4076V49.5349H38.0602V31.5572C38.0602 27.3997 41.48 23.9641 45.6204 23.9641H62.3747C66.5167 23.9641 69.9349 27.3981 69.9349 31.5572V49.5349H72.0837V31.4076C71.8991 23.7755 65.4901 22.1496 63.1746 22L53.9967 21.9333H53.9984Z" fill="#DBFFE4"/>
<path d="M47.3711 55.6423C48.2713 55.6423 48.9999 56.374 48.9999 57.2781C48.9999 58.1822 48.2713 58.9139 47.3711 58.9139C46.4708 58.9139 45.7422 58.1805 45.7422 57.2781C45.7422 56.374 46.4725 55.6423 47.3711 55.6423ZM60.238 55.6423C61.1382 55.6423 61.8668 56.374 61.8668 57.2781C61.8668 58.1822 61.1366 58.9139 60.238 58.9139C59.3378 58.9139 58.6092 58.1805 58.6092 57.2781C58.6092 56.374 59.3394 55.6423 60.238 55.6423ZM53.8053 55.6423C54.7056 55.6423 55.4341 56.374 55.4341 57.2781C55.4341 58.1822 54.7039 58.9139 53.8053 58.9139C52.9051 58.9139 52.1765 58.1805 52.1765 57.2781C52.1765 56.374 52.9051 55.6423 53.8053 55.6423Z" fill="#F4B41A"/>
<path d="M54 85.2097C55.3341 85.2097 56.4157 86.2959 56.4157 87.6357C56.4157 88.4975 55.9672 89.2569 55.292 89.6861V95.5593C55.292 96.2731 54.7124 96.8552 54.0016 96.8552C53.2908 96.8552 52.7112 96.2715 52.7112 95.5593V89.6861C52.036 89.2569 51.5876 88.4975 51.5876 87.6357C51.5876 86.2959 52.6691 85.2097 54.0032 85.2097H54Z" fill="#F4B41A"/>
</g>
<defs>
<clipPath id="clip0">
<rect width="108" height="122" fill="white"/>
</clipPath>
</defs>
</svg>
