<svg width="22" height="22" viewBox="0 0 22 22" fill="none" xmlns="http://www.w3.org/2000/svg">
<path d="M19.6429 0.5H2.35714C1.0558 0.5 0 1.50781 0 2.75V19.25C0 20.4922 1.0558 21.5 2.35714 21.5H19.6429C20.9442 21.5 22 20.4922 22 19.25V2.75C22 1.50781 20.9442 0.5 19.6429 0.5ZM18.8473 7.5125C18.7786 8.97031 17.708 10.9719 15.6406 13.5078C13.5045 16.1562 11.6973 17.4828 10.2192 17.4828C9.30089 17.4828 8.52991 16.6766 7.89643 15.0641C6.65893 10.7375 6.13348 8.20156 5.11205 8.20156C4.9942 8.20156 4.5817 8.43594 3.87946 8.90937L3.14286 8C4.95491 6.48125 6.68348 4.79375 7.76384 4.7C8.98661 4.5875 9.73795 5.38437 10.0228 7.09531C11.0295 13.1703 11.4763 14.0891 13.3031 11.3375C13.9612 10.3438 14.3147 9.59375 14.3589 9.07344C14.5259 7.53594 13.1018 7.63906 12.1393 8.03281C12.9103 5.61875 14.3884 4.44687 16.5638 4.5125C18.1795 4.55937 18.9406 5.5625 18.8473 7.5125V7.5125Z" fill="#0CABC7"/>
</svg>
