<svg width="22" height="22" viewBox="0 0 22 22" fill="none" xmlns="http://www.w3.org/2000/svg">
<path d="M20.4286 0.5H1.56652C0.702232 0.5 0 1.17969 0 2.01406V19.9859C0 20.8203 0.702232 21.5 1.56652 21.5H20.4286C21.2929 21.5 22 20.8203 22 19.9859V2.01406C22 1.17969 21.2929 0.5 20.4286 0.5ZM6.64911 18.5H3.38839V8.47812H6.65402V18.5H6.64911ZM5.01875 7.10938C3.97277 7.10938 3.12812 6.29844 3.12812 5.30469C3.12812 4.31094 3.97277 3.5 5.01875 3.5C6.05982 3.5 6.90937 4.31094 6.90937 5.30469C6.90937 6.30312 6.06473 7.10938 5.01875 7.10938V7.10938ZM18.8719 18.5H15.6112V13.625C15.6112 12.4625 15.5866 10.9672 13.917 10.9672C12.2179 10.9672 11.9576 12.2328 11.9576 13.5406V18.5H8.69688V8.47812H11.825V9.84687H11.8692C12.3062 9.05937 13.3719 8.22969 14.958 8.22969C18.258 8.22969 18.8719 10.3062 18.8719 13.0062V18.5V18.5Z" fill="#0CABC7"/>
</svg>
