<svg width="22" height="22" viewBox="0 0 22 22" fill="none" xmlns="http://www.w3.org/2000/svg">
<path d="M11.0049 5.60934C7.88171 5.60934 5.36251 8.01403 5.36251 10.9953C5.36251 13.9765 7.88171 16.3812 11.0049 16.3812C14.1281 16.3812 16.6473 13.9765 16.6473 10.9953C16.6473 8.01403 14.1281 5.60934 11.0049 5.60934ZM11.0049 14.4968C8.98662 14.4968 7.33662 12.9265 7.33662 10.9953C7.33662 9.06403 8.98171 7.49371 11.0049 7.49371C13.0281 7.49371 14.6732 9.06403 14.6732 10.9953C14.6732 12.9265 13.0232 14.4968 11.0049 14.4968V14.4968ZM18.1942 5.38903C18.1942 6.08746 17.6049 6.64528 16.8781 6.64528C16.1464 6.64528 15.5621 6.08278 15.5621 5.38903C15.5621 4.69528 16.1513 4.13278 16.8781 4.13278C17.6049 4.13278 18.1942 4.69528 18.1942 5.38903ZM21.9312 6.66403C21.8478 4.98121 21.4451 3.49059 20.1536 2.26246C18.867 1.03434 17.3054 0.649963 15.5424 0.565588C13.7254 0.467151 8.27947 0.467151 6.46251 0.565588C4.70448 0.645276 3.14287 1.02965 1.85136 2.25778C0.559842 3.4859 0.162074 4.97653 0.0736815 6.65934C-0.0294433 8.39371 -0.0294433 13.5921 0.0736815 15.3265C0.157164 17.0093 0.559842 18.5 1.85136 19.7281C3.14287 20.9562 4.69957 21.3406 6.46251 21.425C8.27947 21.5234 13.7254 21.5234 15.5424 21.425C17.3054 21.3453 18.867 20.9609 20.1536 19.7281C21.4402 18.5 21.8428 17.0093 21.9312 15.3265C22.0344 13.5921 22.0344 8.3984 21.9312 6.66403V6.66403ZM19.5839 17.1875C19.2009 18.1062 18.4594 18.814 17.492 19.1843C16.0433 19.7328 12.6058 19.6062 11.0049 19.6062C9.40403 19.6062 5.96162 19.7281 4.51787 19.1843C3.55537 18.8187 2.81386 18.1109 2.42591 17.1875C1.85136 15.8047 1.98395 12.5234 1.98395 10.9953C1.98395 9.46715 1.85627 6.18121 2.42591 4.80309C2.80895 3.88434 3.55046 3.17653 4.51787 2.80621C5.96653 2.25778 9.40403 2.38434 11.0049 2.38434C12.6058 2.38434 16.0482 2.26246 17.492 2.80621C18.4545 3.17184 19.196 3.87965 19.5839 4.80309C20.1585 6.1859 20.0259 9.46715 20.0259 10.9953C20.0259 12.5234 20.1585 15.8093 19.5839 17.1875Z" fill="#0CABC7"/>
</svg>
