<svg width="108" height="122" viewBox="0 0 108 122" fill="none" xmlns="http://www.w3.org/2000/svg">
<g clip-path="url(#clip0)">
<path d="M59.359 1.48775L102.656 26.4762C106.057 28.4498 108 31.8201 108 35.7368V85.7441C108 89.6609 106.057 93.0312 102.656 95.0048L59.359 119.993C55.9584 121.967 52.072 121.967 48.6714 119.993L5.37419 95.0048C1.97358 93.0312 0.030365 89.6609 0.030365 85.7441V35.7368C0.030365 31.8201 1.97358 28.4498 5.37419 26.4762L48.6714 1.48775C52.072 -0.485825 55.9584 -0.485825 59.359 1.48775Z" fill="#DBFFE4"/>
<path d="M90.8451 50.7359H5.16165L48.0034 25.4438L90.8451 50.7359Z" fill="#F4B41A"/>
<path d="M5.16165 50.7361H90.8451V101.29H5.16165V50.7361Z" fill="#F4B41A"/>
<path d="M13.9668 13.9365H67.8302L82.0399 28.1463V101.29H13.9668V13.9365Z" fill="white"/>
<path d="M24.2294 32.822H71.747V33.8847H24.2294V32.822ZM24.2294 44.3598H71.747V45.4225H24.2294V44.3598ZM24.2294 46.3334H71.747V47.3961H24.2294V46.3334ZM24.2294 48.307H71.747V49.3697H24.2294V48.307ZM24.2294 50.3109H71.7773V51.3736H24.2294V50.3109ZM24.2294 34.7956H71.747V35.8583H24.2294V34.7956ZM24.2294 36.7692H71.747V37.8319H24.2294V36.7692ZM24.2294 38.7427H71.7773V39.8054H24.2294V38.7427ZM24.2294 40.7163H60.6342V41.779H24.2294V40.7163ZM24.2294 52.2541H60.6342V53.3168H24.2294V52.2541Z" fill="#DBFFE4"/>
<path d="M67.8302 13.9365V28.1463H82.0399L67.8302 13.9365Z" fill="#DBFFE4"/>
<path d="M39.684 90.7539H55.8066V92.3328H39.684V90.7539Z" fill="#B3B3B3"/>
<path d="M5.16165 50.7361L48.0034 75.9978L5.16165 101.29V50.7361Z" fill="#F4B41A"/>
<path d="M90.8451 50.7361L48.0034 75.9978L90.8451 101.29V50.7361Z" fill="#F4B41A"/>
<path d="M48.0034 75.9978L5.16165 101.29H90.8451L48.0034 75.9978Z" fill="#43CD43"/>
<path d="M82.0399 42.3256V28.1462H67.8302L82.0399 42.3256Z" fill="#F7FAFA"/>
<path d="M13.9668 18.0962C18.7945 18.0962 22.7113 22.013 22.7113 26.8406C22.7113 31.6683 18.7945 35.5851 13.9668 35.5851C9.13917 35.5851 5.22238 31.6683 5.22238 26.8406C5.22238 22.013 9.13917 18.0962 13.9668 18.0962Z" fill="#F4B41A"/>
<path d="M14.6348 29.1786C14.3615 29.4822 14.0579 29.7555 13.7239 29.9377C13.3899 30.1199 13.056 30.2109 12.6916 30.2109C12.3272 30.2109 11.9629 30.0895 11.5985 29.877C11.2342 29.6644 10.9609 29.3304 10.7484 28.875C10.5359 28.4195 10.4144 27.9337 10.4144 27.3872C10.4144 26.7192 10.5966 26.0513 10.9306 25.3833C11.2646 24.7153 11.6896 24.1991 12.2058 23.8651C12.722 23.5312 13.2078 23.349 13.6936 23.349C14.0579 23.349 14.4223 23.4401 14.7563 23.6222C15.0903 23.8044 15.3635 24.108 15.6064 24.5028L15.819 23.5312H16.9424L16.0315 27.7819C15.91 28.3588 15.8493 28.6928 15.8493 28.7535C15.8493 28.875 15.8797 28.9661 15.9708 29.0572C16.0619 29.1483 16.1529 29.1786 16.2744 29.1786C16.4869 29.1786 16.7906 29.0572 17.1549 28.7839C17.6407 28.4499 18.0051 27.9945 18.3087 27.4176C18.582 26.8407 18.7338 26.2638 18.7338 25.6565C18.7338 24.9582 18.5516 24.2902 18.1872 23.683C17.8229 23.0757 17.2764 22.5899 16.578 22.2256C15.8797 21.8612 15.0903 21.679 14.2097 21.679C13.2381 21.679 12.3272 21.9219 11.5075 22.3774C10.6877 22.8328 10.05 23.5008 9.62497 24.351C9.16953 25.2011 8.95699 26.1423 8.95699 27.114C8.95699 28.1463 9.16953 29.0268 9.62497 29.7555C10.0804 30.5146 10.718 31.0611 11.5682 31.3951C12.4183 31.7594 13.3596 31.9416 14.3919 31.9416C15.485 31.9416 16.4262 31.7594 17.1549 31.3951C17.914 31.0307 18.4605 30.5753 18.8249 30.0288H19.9483C19.7357 30.4842 19.3714 30.9093 18.8552 31.3951C18.3391 31.8505 17.7014 32.2149 17.0031 32.4881C16.2744 32.7614 15.4242 32.8829 14.3919 32.8829C13.4507 32.8829 12.6005 32.7614 11.8111 32.5185C11.0217 32.2756 10.3537 31.9113 9.80715 31.4255C9.26062 30.9396 8.83554 30.3931 8.56228 29.7555C8.19793 28.9661 8.04611 28.1159 8.04611 27.1747C8.04611 26.1423 8.25865 25.1707 8.68373 24.2599C9.19989 23.1364 9.9286 22.2559 10.8698 21.6487C11.8111 21.0414 12.9649 20.7378 14.3008 20.7378C15.3332 20.7378 16.2744 20.9503 17.1245 21.3754C17.9443 21.8005 18.6123 22.4381 19.0981 23.2883C19.4928 24.017 19.7054 24.8064 19.7054 25.6565C19.7054 26.8711 19.2803 27.9641 18.4301 28.9053C17.6711 29.7555 16.8209 30.1806 15.91 30.1806C15.6064 30.1806 15.3939 30.1502 15.2117 30.0591C15.0295 29.968 14.9081 29.8466 14.817 29.6644C14.7563 29.5733 14.7259 29.3912 14.6955 29.1179L14.6348 29.1786ZM11.6289 27.4176C11.6289 27.9945 11.7807 28.4499 12.054 28.7535C12.3272 29.0875 12.6309 29.2393 12.9952 29.2393C13.2381 29.2393 13.481 29.1786 13.7543 29.0268C14.0276 28.875 14.2705 28.6624 14.5134 28.3892C14.7563 28.1159 14.9384 27.7516 15.0903 27.3265C15.2421 26.9014 15.3332 26.4763 15.3332 26.0513C15.3332 25.4744 15.1813 25.0493 14.9081 24.7153C14.6348 24.4117 14.2705 24.2295 13.8757 24.2295C13.6025 24.2295 13.3596 24.2902 13.1167 24.442C12.8738 24.5939 12.6612 24.8064 12.4183 25.11C12.2058 25.4136 12.0236 25.778 11.8718 26.2031C11.7504 26.6281 11.6593 27.0229 11.6593 27.3872L11.6289 27.4176Z" fill="white"/>
<path d="M83.3455 68.6196C94.0939 68.6196 102.808 77.3337 102.808 88.0821C102.808 98.8305 94.0939 107.545 83.3455 107.545C72.5971 107.545 63.8831 98.8305 63.8831 88.0821C63.8831 77.3337 72.5971 68.6196 83.3455 68.6196Z" fill="#ABF2D3"/>
<path d="M78.5482 82.7383C77.8802 82.7383 77.3641 82.1918 77.3641 81.5542C77.3641 80.8862 77.9106 80.37 78.5482 80.37H93.0312L90.1164 76.9694C89.6913 76.4836 89.752 75.7245 90.2378 75.2994C90.7237 74.8743 91.4827 74.935 91.9078 75.4209L96.4318 80.7344C96.6444 80.9469 96.7658 81.2505 96.7658 81.5542C96.7658 81.8882 96.6444 82.1614 96.4318 82.374L91.9078 87.6875C91.4827 88.1733 90.7237 88.234 90.2378 87.8089C89.752 87.3838 89.6913 86.6248 90.1164 86.139L93.0312 82.7383H78.5482Z" fill="white"/>
<path d="M88.1428 93.4259C88.8108 93.4259 89.327 93.9725 89.327 94.6101C89.327 95.2781 88.7804 95.7942 88.1428 95.7942H73.6598L76.5746 99.1949C76.9997 99.6807 76.939 100.44 76.4532 100.865C75.9674 101.29 75.2083 101.229 74.7832 100.743L70.2592 95.4299C70.0467 95.2173 69.9252 94.9137 69.9252 94.6101C69.9252 94.2761 70.0467 94.0028 70.2592 93.7903L74.7832 88.4768C75.2083 87.991 75.9674 87.9302 76.4532 88.3553C76.939 88.7804 76.9997 89.5395 76.5746 90.0253L73.6598 93.4259H88.1428Z" fill="white"/>
</g>
<defs>
<clipPath id="clip0">
<rect width="108" height="121.481" fill="white"/>
</clipPath>
</defs>
</svg>
