<svg width="108" height="122" viewBox="0 0 108 122" fill="none" xmlns="http://www.w3.org/2000/svg">
<g clip-path="url(#clip0)">
<path d="M59.3315 1.45229L102.648 26.4712C106.05 28.4212 108 31.8235 108 35.7236V85.7198C108 89.6615 106.05 93.0222 102.648 94.9723L59.3315 119.991C55.9293 121.941 52.0292 121.941 48.627 119.991L5.31078 94.9723C1.90855 93.0222 -0.0415039 89.62 -0.0415039 85.7198V35.7236C-0.0415039 31.782 1.90855 28.4212 5.31078 26.4712L48.627 1.45229C52.0292 -0.497769 55.9293 -0.497769 59.3315 1.45229Z" fill="#DBFFE4"/>
<path d="M53.9792 101.279C76.1147 101.279 94.0591 99.867 94.0591 98.1255C94.0591 96.3839 76.1147 94.9722 53.9792 94.9722C31.8437 94.9722 13.8993 96.3839 13.8993 98.1255C13.8993 99.867 31.8437 101.279 53.9792 101.279Z" fill="#60C7A2"/>
<path d="M12.1982 20.1646H95.8018C98.5401 20.1646 100.781 22.405 100.781 25.1434V76.6334H7.17789V25.1434C7.17789 22.405 9.41838 20.1646 12.1568 20.1646H12.1982Z" fill="#60C7A2"/>
<path d="M10.5801 73.2726H97.3784V25.185C97.3784 24.3137 96.6315 23.5669 95.7602 23.5669H12.1567C11.2854 23.5669 10.5386 24.3137 10.5386 25.185V73.2726H10.5801Z" fill="#DBFFE4"/>
<path d="M100.781 76.6748V82.1516C100.781 84.8899 98.2912 87.1304 95.2624 87.1304H12.6961C9.66732 87.1304 7.17789 84.8899 7.17789 82.1516V76.6748H100.781Z" fill="white"/>
<path d="M28.753 30.7861H79.247H86.7568C87.6696 30.7861 88.4164 31.533 88.4164 32.4458V42.3205V73.2726H19.5836V42.3205V32.4458C19.5836 31.533 20.3304 30.7861 21.2432 30.7861H28.753Z" fill="white"/>
<path d="M21.2432 30.7861H86.7568C87.6696 30.7861 88.4164 31.533 88.4164 32.4458V35.7651H19.5836V32.4458C19.5836 31.533 20.3304 30.7861 21.2432 30.7861Z" fill="#F4B41A"/>
<path d="M39.333 32.5286H75.3054C75.5543 32.5286 75.7618 32.736 75.7618 32.985V33.8148C75.7618 34.0637 75.5543 34.2712 75.3054 34.2712H39.333C39.0841 34.2712 38.8766 34.0637 38.8766 33.8148V32.985C38.8766 32.736 39.0841 32.5286 39.333 32.5286Z" fill="white"/>
<path d="M23.4836 32.1968C24.023 32.1968 24.4379 32.6117 24.4379 33.151C24.4379 33.6903 24.023 34.1052 23.4836 34.1052C22.9443 34.1052 22.5294 33.6903 22.5294 33.151C22.5294 32.6117 22.9443 32.1968 23.4836 32.1968Z" fill="#83CF8F"/>
<path d="M27.2593 32.1968C27.7987 32.1968 28.2136 32.6117 28.2136 33.151C28.2136 33.6903 27.7987 34.1052 27.2593 34.1052C26.7199 34.1052 26.305 33.6903 26.305 33.151C26.305 32.6117 26.7199 32.1968 27.2593 32.1968Z" fill="#FFE356"/>
<path d="M31.035 32.1968C31.5743 32.1968 31.9893 32.6117 31.9893 33.151C31.9893 33.6903 31.5743 34.1052 31.035 34.1052C30.4956 34.1052 30.0807 33.6903 30.0807 33.151C30.0807 32.6117 30.4956 32.1968 31.035 32.1968Z" fill="#FF7069"/>
<path d="M81.446 40.7854H79.8693V64.8085H81.446V40.7854Z" fill="#ABF2D3"/>
<path d="M84.5993 40.7854H83.0226V64.8085H84.5993V40.7854Z" fill="#ABF2D3"/>
<path d="M82.2343 70.783L84.5993 64.8083H79.8693L82.2343 70.783Z" fill="#FFE356"/>
<path d="M83.811 40.7854H80.6577V64.8085H83.811V40.7854Z" fill="#ABF2D3"/>
<path d="M84.5993 40.0386H79.8693V40.7855H84.5993V40.0386Z" fill="#DBFFE4"/>
<path d="M81.2385 37.3416H83.2716C84.0184 37.3416 84.5993 37.9639 84.5993 38.6693V39.9969H79.8693V38.6693C79.8693 37.9224 80.4916 37.3416 81.197 37.3416H81.2385Z" fill="#83CF8F"/>
<path d="M82.1514 71.281H82.3588L83.1056 68.6257H81.363L82.1514 71.281Z" fill="#828282"/>
<path d="M26.554 38.9182H75.2639V51.9877H26.554V38.9182ZM29.7487 54.4771H72.0691V55.4729H29.7487V54.4771ZM29.7487 67.5466H49.0833V68.5424H29.7487V67.5466ZM29.7487 64.2689H72.0691V65.2646H29.7487V64.2689ZM29.7487 60.9911H64.9742V61.9869H29.7487V60.9911ZM29.7487 57.7134H72.0691V58.7091H29.7487V57.7134Z" fill="#DBFFE4"/>
<path d="M64.7668 94.9721L72.733 97.503H35.267L41.6565 94.9721V87.1304H64.7668V94.9721Z" fill="#DBFFE4"/>
<path d="M64.7668 94.9721L41.6566 87.1304H64.7668V94.9721Z" fill="#C6CBD6"/>
<path d="M41.6565 94.9722H64.7668L72.733 97.5031V98.6233H53.9792H35.267V97.5031L41.6565 94.9722Z" fill="#DBFFE4"/>
<path d="M53.9792 83.6038C54.9187 83.6038 55.6804 82.8421 55.6804 81.9026C55.6804 80.9631 54.9187 80.2014 53.9792 80.2014C53.0398 80.2014 52.2781 80.9631 52.2781 81.9026C52.2781 82.8421 53.0398 83.6038 53.9792 83.6038Z" fill="#B6B6B8"/>
</g>
<defs>
<clipPath id="clip0">
<rect width="108" height="121.443" fill="white"/>
</clipPath>
</defs>
</svg>
