<svg width="108" height="122" viewBox="0 0 108 122" fill="none" xmlns="http://www.w3.org/2000/svg">
<g clip-path="url(#clip0)">
<path d="M59.3332 1.4731L102.626 26.4885C106.036 28.4526 107.973 31.8353 107.973 35.7363V85.7398C107.973 89.6681 106.036 93.0235 102.626 94.9876L59.3332 120.003C55.9232 121.967 52.0495 121.967 48.6396 120.003L5.3468 94.9876C1.93685 93.0235 0 89.6408 0 85.7398V35.7363C0 31.808 1.93685 28.4526 5.3468 26.4885L48.6396 1.4731C52.0495 -0.491033 55.9232 -0.491033 59.3332 1.4731Z" fill="#F0FFF4"/>
<path d="M23.3786 17.1863H73.655L86.8856 30.4169V98.6975H23.3786V17.1863Z" fill="white"/>
<path d="M32.9538 34.645H77.3104V35.6544H32.9538V34.645ZM32.9538 45.4205H77.3104V46.4298H32.9538V45.4205ZM32.9538 47.2755H77.3104V48.2848H32.9538V47.2755ZM32.9538 49.1305H77.3104V50.1398H32.9538V49.1305ZM32.9538 50.9855H77.3104V51.9949H32.9538V50.9855ZM32.9538 36.5H77.3104V37.5094H32.9538V36.5ZM32.9538 38.355H77.3104V39.3644H32.9538V38.355ZM32.9538 40.2101H77.3104V41.2194H32.9538V40.2101ZM32.9538 42.0651H66.9442V43.0744H32.9538V42.0651ZM32.9538 52.8405H66.9442V53.8499H32.9538V52.8405Z" fill="#F0FFF4"/>
<path d="M73.655 17.1863V30.4169H86.8856L73.655 17.1863Z" fill="#ABF2D3"/>
<path d="M86.8856 43.6746V30.4167H73.655L86.8856 43.6746Z" fill="#F7FAFA"/>
<path d="M32.9538 59.2512H77.3104V60.2606H32.9538V59.2512ZM32.9538 70.0267H77.3104V71.036H32.9538V70.0267ZM32.9538 71.8817H77.3104V72.891H32.9538V71.8817ZM32.9538 73.7367H77.3104V74.746H32.9538V73.7367ZM32.9538 75.5917H77.3104V76.6011H32.9538V75.5917ZM32.9538 61.1062H77.3104V62.1156H32.9538V61.1062ZM32.9538 62.9612H77.3104V63.9706H32.9538V62.9612ZM32.9538 64.8163H77.3104V65.8256H32.9538V64.8163ZM32.9538 66.6713H66.9442V67.6806H32.9538V66.6713ZM32.9538 77.4467H66.9442V78.4561H32.9538V77.4467Z" fill="#DCE3DB"/>
<path d="M86.2036 110.019C98.2414 110.019 108 100.26 108 88.2222C108 76.1844 98.2414 66.4258 86.2036 66.4258C74.1658 66.4258 64.4072 76.1844 64.4072 88.2222C64.4072 100.26 74.1658 110.019 86.2036 110.019Z" fill="#ABF2D3"/>
<path d="M86.2036 68.772C96.9518 68.772 105.654 77.4742 105.654 88.2223C105.654 98.9705 96.9518 107.673 86.2036 107.673C75.4554 107.673 66.7532 98.9705 66.7532 88.2223C66.7532 77.4742 75.4554 68.772 86.2036 68.772Z" fill="white"/>
<path d="M81.4297 82.8753C80.775 82.8753 80.2294 82.3298 80.2294 81.6751C80.2294 81.0204 80.775 80.4748 81.4297 80.4748H95.9151L92.9962 77.0649C92.5598 76.5739 92.6416 75.81 93.1326 75.4009C93.6237 74.9644 94.3875 75.0462 94.7967 75.5373L99.3251 80.8294C99.5433 81.0476 99.6797 81.3477 99.6797 81.6751C99.6797 82.0024 99.5433 82.3025 99.3251 82.5207L94.7967 87.8129C94.3602 88.3039 93.6237 88.3585 93.1326 87.9493C92.6416 87.5128 92.587 86.7763 92.9962 86.2852L95.9151 82.8753H81.4297Z" fill="#F4B41A"/>
<path d="M91.0048 93.569C91.6595 93.569 92.2051 94.1146 92.2051 94.7693C92.2051 95.424 91.6595 95.9696 91.0048 95.9696H76.5193L79.4382 99.3795C79.8747 99.8705 79.7929 100.634 79.3018 101.044C78.8108 101.48 78.047 101.398 77.6378 100.907L73.1094 95.615C72.8911 95.3967 72.7547 95.0967 72.7547 94.7693C72.7547 94.442 72.8911 94.1419 73.1094 93.9237L77.6378 88.6315C78.0743 88.1405 78.8108 88.0859 79.3018 88.4951C79.7929 88.9316 79.8474 89.6681 79.4382 90.1591L76.5193 93.569H91.0048Z" fill="#37D67A"/>
</g>
<defs>
<clipPath id="clip0">
<rect width="108" height="121.476" fill="white"/>
</clipPath>
</defs>
</svg>
