<svg width="108" height="120" viewBox="0 0 108 120" fill="none" xmlns="http://www.w3.org/2000/svg">
<g clip-path="url(#clip0)">
<path d="M59.2723 1.45223L101.976 26.1085C105.329 28.0433 107.248 31.3672 107.248 35.2398V84.5479C107.248 88.419 105.329 91.7429 101.976 93.6792L59.2723 118.335C55.9198 120.272 52.0803 120.272 48.7278 118.335L6.02393 93.6792C2.67148 91.7444 0.751709 88.4205 0.751709 84.5479V35.2398C0.751709 31.3687 2.67148 28.0448 6.02393 26.1085L48.7278 1.45223C52.0803 -0.484076 55.9198 -0.484076 59.2723 1.45223Z" fill="#F0FFF4"/>
<path d="M9.17191 29.2444H89.5525C92.1939 29.2444 94.3542 31.4047 94.3542 34.0461V83.5616H4.37024V34.0461C4.37024 31.4047 6.53054 29.2444 9.17191 29.2444Z" fill="#43CD43"/>
<path d="M7.63098 80.3008H91.095V34.0479C91.095 33.2076 90.3959 32.5071 89.554 32.5071H9.17341C8.33304 32.5071 7.63248 33.2076 7.63248 34.0479V80.3008H7.63098Z" fill="white"/>
<path d="M9.35828 39.1035H89.3661V57.6247H9.35828V39.1035Z" fill="#F0FFF4"/>
<path d="M0 83.5618H98.7244V86.3335C98.7244 87.8568 97.4766 89.1037 95.9522 89.1037H2.77216C1.24777 89.1037 0 87.8583 0 86.3335V83.5618Z" fill="#F4B41A"/>
<path d="M39.5093 84.575H59.2166L57.1044 85.9761H41.62L39.5093 84.575Z" fill="#F0FFF4"/>
<path d="M99.8218 46.6782H70.2992C69.3626 46.6782 68.6034 47.4374 68.6034 48.3739V87.4079C68.6034 88.3444 69.3626 89.1036 70.2992 89.1036H99.8218C100.758 89.1036 101.518 88.3444 101.518 87.4079V48.3739C101.518 47.4374 100.758 46.6782 99.8218 46.6782Z" fill="#43CD43"/>
<path d="M99.4581 49.6824H70.6646C70.5558 49.6824 70.4677 49.7705 70.4677 49.8793V84.9387C70.4677 85.0475 70.5558 85.1357 70.6646 85.1357H99.4581C99.5668 85.1357 99.655 85.0475 99.655 84.9387V49.8793C99.655 49.7705 99.5668 49.6824 99.4581 49.6824Z" fill="white"/>
<path d="M85.062 88.1545C85.6722 88.1545 86.1669 87.6598 86.1669 87.0495C86.1669 86.4393 85.6722 85.9446 85.062 85.9446C84.4517 85.9446 83.957 86.4393 83.957 87.0495C83.957 87.6598 84.4517 88.1545 85.062 88.1545Z" fill="#F0FFF4"/>
<path d="M72.004 54.0737H98.1186V69.4649H72.004V54.0737Z" fill="#F0FFF4"/>
<path d="M107.14 61.8655H93.4612C92.9863 61.8655 92.6013 62.2504 92.6013 62.7253V88.2438C92.6013 88.7187 92.9863 89.1036 93.4612 89.1036H107.14C107.615 89.1036 108 88.7187 108 88.2438V62.7253C108 62.2504 107.615 61.8655 107.14 61.8655Z" fill="#F4B41A"/>
<path d="M106.498 64.415H94.1031C94.0558 64.415 94.0175 64.4534 94.0175 64.5007V86.4667C94.0175 86.514 94.0558 86.5523 94.1031 86.5523H106.498C106.546 86.5523 106.584 86.514 106.584 86.4667V64.5007C106.584 64.4534 106.546 64.415 106.498 64.415Z" fill="white"/>
<path d="M100.301 88.4941C100.731 88.4941 101.079 88.1462 101.079 87.7169C101.079 87.2877 100.731 86.9397 100.301 86.9397C99.8721 86.9397 99.5242 87.2877 99.5242 87.7169C99.5242 88.1462 99.8721 88.4941 100.301 88.4941Z" fill="#F0FFF4"/>
<path d="M102.38 63.2695H98.2207C98.1153 63.2695 98.0298 63.3547 98.0298 63.4597C98.0298 63.5647 98.1153 63.6499 98.2207 63.6499H102.38C102.486 63.6499 102.571 63.5647 102.571 63.4597C102.571 63.3547 102.486 63.2695 102.38 63.2695Z" fill="#B6B6B8"/>
<path d="M91.0935 37.6635H7.63098V34.048C7.63098 33.2076 8.33003 32.5071 9.17191 32.5071H89.5525C90.3944 32.5071 91.0935 33.2076 91.0935 34.048V37.6635Z" fill="#8597B1"/>
<path d="M43.2497 33.9814H86.0047C86.3204 33.9814 86.5774 34.2385 86.5774 34.5542V35.6156C86.5774 35.9313 86.3204 36.1868 86.0047 36.1868H43.2497C42.934 36.1868 42.6769 35.9298 42.6769 35.6156V34.5542C42.6769 34.2385 42.934 33.9814 43.2497 33.9814Z" fill="white"/>
<path d="M11.1818 33.9424C11.8959 33.9424 12.4747 34.5212 12.4747 35.2353C12.4747 35.9508 11.8959 36.5296 11.1818 36.5296C10.4662 36.5296 9.88745 35.9508 9.88745 35.2353C9.88745 34.5212 10.4677 33.9424 11.1818 33.9424Z" fill="#83CF8F"/>
<path d="M16.2871 33.9424C17.0027 33.9424 17.5815 34.5212 17.5815 35.2353C17.5815 35.9508 17.0027 36.5296 16.2871 36.5296C15.573 36.5296 14.9943 35.9508 14.9943 35.2353C14.9943 34.5212 15.573 33.9424 16.2871 33.9424Z" fill="#FFE356"/>
<path d="M21.3945 33.9424C22.1088 33.9424 22.6878 34.5212 22.6878 35.2353C22.6878 35.9508 22.1088 36.5296 21.3945 36.5296C20.6786 36.5296 20.0996 35.9508 20.0996 35.2353C20.0996 34.5212 20.6786 33.9424 21.3945 33.9424Z" fill="#FF7069"/>
<path d="M18.2385 62.0886C20.2996 62.0886 21.9713 63.7612 21.9713 65.8234C21.9713 67.8855 20.2996 69.5566 18.2385 69.5566C16.1774 69.5566 14.5072 67.884 14.5072 65.8234C14.5072 63.7612 16.1789 62.0886 18.2385 62.0886Z" fill="#ABF2D3"/>
<path d="M37.5204 62.0886C39.5815 62.0886 41.2517 63.7612 41.2517 65.8234C41.2517 67.8855 39.58 69.5566 37.5204 69.5566C35.4593 69.5566 33.7876 67.884 33.7876 65.8234C33.7876 63.7612 35.4593 62.0886 37.5204 62.0886Z" fill="#F4B41A"/>
<path d="M12.8837 71.1577H23.5935V71.738H12.8837V71.1577ZM12.8837 74.8093H20.0772V75.3896H12.8837V74.8093ZM12.8837 72.9843H23.5935V73.5646H12.8837V72.9843Z" fill="#F0FFF4"/>
<path d="M32.1639 71.1577H42.8737V71.738H32.1639V71.1577ZM32.1639 74.8093H39.3574V75.3896H32.1639V74.8093ZM32.1639 72.9843H42.8737V73.5646H32.1639V72.9843Z" fill="#F0FFF4"/>
<path d="M57.9869 62.0886C60.048 62.0886 61.7182 63.7612 61.7182 65.8234C61.7182 67.8855 60.048 69.5566 57.9869 69.5566C55.9258 69.5566 54.2556 67.884 54.2556 65.8234C54.2556 63.7612 55.9258 62.0886 57.9869 62.0886Z" fill="#37D67A"/>
<path d="M52.632 71.1577H63.3418V71.738H52.632V71.1577ZM52.632 74.8093H59.8254V75.3896H52.632V74.8093ZM52.632 72.9843H63.3418V73.5646H52.632V72.9843Z" fill="#F0FFF4"/>
<path d="M77.2056 71.6838C78.4849 71.6838 79.5222 72.7211 79.5222 74.0005C79.5222 75.2798 78.4849 76.3171 77.2056 76.3171C75.9262 76.3171 74.8889 75.2798 74.8889 74.0005C74.8889 72.7211 75.9262 71.6838 77.2056 71.6838Z" fill="#ABF2D3"/>
<path d="M73.8817 77.3093H80.5295V77.7784H73.8817V77.3093ZM73.8817 80.2634H78.3466V80.7324H73.8817V80.2634ZM73.8817 78.7856H80.5295V79.2562H73.8817V78.7856Z" fill="#DCE3DB"/>
<path d="M86.2467 71.6838C87.526 71.6838 88.5634 72.7211 88.5634 74.0005C88.5634 75.2798 87.5276 76.3171 86.2467 76.3171C84.9674 76.3171 83.9301 75.2798 83.9301 74.0005C83.9301 72.7211 84.9674 71.6838 86.2467 71.6838Z" fill="#F4B41A"/>
<path d="M82.9227 77.3093H89.5705V77.7784H82.9227V77.3093ZM82.9227 80.2634H87.3877V80.7324H82.9227V80.2634ZM82.9227 78.7856H89.5705V79.2562H82.9227V78.7856Z" fill="#F0FFF4"/>
<path d="M99.655 53.0544H70.4677V49.8793C70.4677 49.7711 70.5563 49.6824 70.6646 49.6824H99.4581C99.5663 49.6824 99.655 49.7711 99.655 49.8793V53.0544Z" fill="#8597B1"/>
<path d="M72.6328 50.6416C73.0534 50.6416 73.394 50.9814 73.394 51.4008C73.394 51.8202 73.0534 52.16 72.6328 52.16C72.2123 52.16 71.8717 51.8202 71.8717 51.4008C71.8717 50.9814 72.2123 50.6416 72.6328 50.6416Z" fill="#83CF8F"/>
<path d="M74.7671 50.6416C75.1881 50.6416 75.5263 50.9814 75.5263 51.4008C75.5263 51.8202 75.1866 52.16 74.7671 52.16C74.3477 52.16 74.0079 51.8202 74.0079 51.4008C74.0079 50.9814 74.3477 50.6416 74.7671 50.6416Z" fill="#FFE356"/>
<path d="M76.9049 50.6416C77.3244 50.6416 77.6641 50.9814 77.6641 51.4008C77.6641 51.8202 77.3244 52.16 76.9049 52.16C76.4855 52.16 76.1458 51.8202 76.1458 51.4008C76.1458 50.9814 76.4855 50.6416 76.9049 50.6416Z" fill="#FF7069"/>
<path d="M81.1654 50.8115H98.523C98.6507 50.8115 98.7545 50.9483 98.7545 51.1167V51.685C98.7545 51.8533 98.6507 51.9901 98.523 51.9901H81.1654C81.0376 51.9901 80.9324 51.8533 80.9324 51.685V51.1167C80.9324 50.9483 81.0376 50.8115 81.1654 50.8115Z" fill="white"/>
<path d="M106.584 65.8883H94.0175V64.4992C94.0175 64.4526 94.055 64.415 94.1016 64.415H106.5C106.546 64.415 106.584 64.4526 106.584 64.4992V65.8883Z" fill="#8597B1"/>
<path d="M94.9059 64.6648C95.1449 64.6648 95.3404 64.8596 95.3404 65.1012C95.3404 65.3413 95.1464 65.5376 94.9059 65.5376C94.6669 65.5376 94.4714 65.3428 94.4714 65.1012C94.4714 64.8596 94.6669 64.6648 94.9059 64.6648Z" fill="#83CF8F"/>
<path d="M96.13 64.6648C96.368 64.6648 96.5625 64.8596 96.5625 65.1012C96.5625 65.3413 96.3695 65.5376 96.13 65.5376C95.8921 65.5376 95.6975 65.3428 95.6975 65.1012C95.6975 64.8596 95.8906 64.6648 96.13 64.6648Z" fill="#FFE356"/>
<path d="M97.3488 64.6648C97.5878 64.6648 97.7832 64.8596 97.7832 65.1012C97.7832 65.3413 97.5893 65.5376 97.3488 65.5376C97.1097 65.5376 96.9143 65.3428 96.9143 65.1012C96.9143 64.8596 97.1082 64.6648 97.3488 64.6648Z" fill="#FF7069"/>
<path d="M106.101 64.7202H99.1137C99.0199 64.7202 98.9438 64.7963 98.9438 64.8901V65.3426C98.9438 65.4364 99.0199 65.5125 99.1137 65.5125H106.101C106.195 65.5125 106.271 65.4364 106.271 65.3426V64.8901C106.271 64.7963 106.195 64.7202 106.101 64.7202Z" fill="white"/>
<path d="M94.6278 66.3635H105.975V73.0519H94.6278V66.3635Z" fill="#F0FFF4"/>
<path d="M100.635 74.4243C101.799 74.4243 102.741 75.3669 102.741 76.5305C102.741 77.6941 101.799 78.6367 100.635 78.6367C99.4715 78.6367 98.5289 77.6926 98.5289 76.5305C98.5289 75.3669 99.4715 74.4243 100.635 74.4243Z" fill="#ABF2D3"/>
<path d="M96.979 80.1702H104.29V80.6873H96.979V80.1702ZM96.979 83.4189H101.89V83.936H96.979V83.4189ZM96.979 81.7953H104.29V82.3109H96.979V81.7953Z" fill="#F0FFF4"/>
<path d="M7.21155 89.1035H100.79C100.48 89.5874 100.16 90.0668 99.8354 90.5401H8.16767C7.84295 90.0653 7.52274 89.5874 7.21305 89.1035H7.21155Z" fill="#C6CBD6"/>
<path d="M88.7566 47.886H81.3714C81.2659 47.886 81.1804 47.9711 81.1804 48.0762C81.1804 48.1812 81.2659 48.2663 81.3714 48.2663H88.7566C88.8621 48.2663 88.9476 48.1812 88.9476 48.0762C88.9476 47.9711 88.8621 47.886 88.7566 47.886Z" fill="#B6B6B8"/>
</g>
<defs>
<clipPath id="clip0">
<rect width="108" height="119.786" fill="white"/>
</clipPath>
</defs>
</svg>
