<svg width="30" height="32" viewBox="0 0 30 32" fill="none" xmlns="http://www.w3.org/2000/svg">
<path d="M14.6667 16C19.2958 16 23.0476 12.4187 23.0476 8C23.0476 3.58125 19.2958 0 14.6667 0C10.0375 0 6.28571 3.58125 6.28571 8C6.28571 12.4187 10.0375 16 14.6667 16ZM6.80952 26.5C6.80952 27.3312 7.51012 28 8.38095 28C9.25179 28 9.95238 27.3312 9.95238 26.5C9.95238 25.6688 9.25179 25 8.38095 25C7.51012 25 6.80952 25.6688 6.80952 26.5ZM20.9524 18.0375V21.1C23.3423 21.5625 25.1429 23.5875 25.1429 26V28.6063C25.1429 29.0813 24.7893 29.4937 24.2982 29.5875L22.1899 29.9875C21.9083 30.0437 21.6333 29.8687 21.5744 29.5938L21.3714 28.6125C21.3125 28.3438 21.4958 28.075 21.7839 28.025L23.0476 27.7812V26C23.0476 22.075 16.7619 21.9312 16.7619 26.1187V27.7875L18.0256 28.0312C18.3071 28.0875 18.4905 28.35 18.4381 28.6187L18.2351 29.6C18.1762 29.8687 17.9012 30.0437 17.6196 29.9937L15.5768 29.7313C15.0595 29.6625 14.6732 29.2437 14.6732 28.7375V26C14.6732 23.5875 16.4738 21.5688 18.8637 21.1V18.275C18.7196 18.3188 18.5756 18.3438 18.4315 18.3937C17.253 18.7875 15.9893 19.0063 14.6732 19.0063C13.3571 19.0063 12.0935 18.7875 10.9149 18.3937C10.4304 18.2312 9.93929 18.1313 9.43512 18.0688V23.1688C10.9476 23.6 12.0542 24.925 12.0542 26.5063C12.0542 28.4375 10.4107 30.0063 8.3875 30.0063C6.36429 30.0063 4.72083 28.4375 4.72083 26.5063C4.72083 24.925 5.82738 23.6 7.33988 23.1688V18.1437C3.1756 18.8125 0 22.2375 0 26.4V29.2C0 30.7438 1.31607 32 2.93333 32H26.4C28.0173 32 29.3333 30.7438 29.3333 29.2V26.4C29.3333 21.9 25.6143 18.2563 20.9524 18.0375Z" fill="#0D5F99"/>
</svg>
