<svg width="32" height="26" viewBox="0 0 32 26" fill="none" xmlns="http://www.w3.org/2000/svg">
<path d="M4.8 11.25C6.565 11.25 8 9.68047 8 7.75C8 5.81953 6.565 4.25 4.8 4.25C3.035 4.25 1.6 5.81953 1.6 7.75C1.6 9.68047 3.035 11.25 4.8 11.25ZM27.2 11.25C28.965 11.25 30.4 9.68047 30.4 7.75C30.4 5.81953 28.965 4.25 27.2 4.25C25.435 4.25 24 5.81953 24 7.75C24 9.68047 25.435 11.25 27.2 11.25ZM28.8 13H25.6C24.72 13 23.925 13.3883 23.345 14.0172C25.36 15.2258 26.79 17.4078 27.1 20H30.4C31.285 20 32 19.218 32 18.25V16.5C32 14.5695 30.565 13 28.8 13ZM16 13C19.095 13 21.6 10.2602 21.6 6.875C21.6 3.48984 19.095 0.75 16 0.75C12.905 0.75 10.4 3.48984 10.4 6.875C10.4 10.2602 12.905 13 16 13ZM19.84 14.75H19.425C18.385 15.2969 17.23 15.625 16 15.625C14.77 15.625 13.62 15.2969 12.575 14.75H12.16C8.98 14.75 6.4 17.5719 6.4 21.05V22.625C6.4 24.0742 7.475 25.25 8.8 25.25H23.2C24.525 25.25 25.6 24.0742 25.6 22.625V21.05C25.6 17.5719 23.02 14.75 19.84 14.75ZM8.655 14.0172C8.075 13.3883 7.28 13 6.4 13H3.2C1.435 13 0 14.5695 0 16.5V18.25C0 19.218 0.715 20 1.6 20H4.895C5.21 17.4078 6.64 15.2258 8.655 14.0172Z" fill="#0D5F99"/>
</svg>
