<svg width="30" height="32" viewBox="0 0 30 32" fill="none" xmlns="http://www.w3.org/2000/svg">
<path d="M26.1905 15.9991H9.95238V9.55534C9.95238 7.08034 12.028 5.02409 14.6208 4.99908C17.2399 4.97408 19.381 7.00534 19.381 9.49909V10.4991C19.381 11.3303 20.0815 11.9991 20.9524 11.9991H23.0476C23.9185 11.9991 24.619 11.3303 24.619 10.4991V9.49909C24.619 4.24909 20.1339 -0.019665 14.6339 -0.00091503C9.13393 0.017835 4.71429 4.34284 4.71429 9.59284V15.9991H3.14286C1.40774 15.9991 0 17.3428 0 18.9991V28.9991C0 30.6553 1.40774 31.9991 3.14286 31.9991H26.1905C27.9256 31.9991 29.3333 30.6553 29.3333 28.9991V18.9991C29.3333 17.3428 27.9256 15.9991 26.1905 15.9991ZM17.2857 25.4991C17.2857 26.8803 16.1137 27.9991 14.6667 27.9991C13.2196 27.9991 12.0476 26.8803 12.0476 25.4991V22.4991C12.0476 21.1178 13.2196 19.9991 14.6667 19.9991C16.1137 19.9991 17.2857 21.1178 17.2857 22.4991V25.4991Z" fill="#00A1D6"/>
</svg>
