<svg width="22" height="22" viewBox="0 0 22 22" fill="none" xmlns="http://www.w3.org/2000/svg">
<path d="M11.0049 5.60928C7.88171 5.60928 5.36251 8.01396 5.36251 10.9952C5.36251 13.9765 7.88171 16.3812 11.0049 16.3812C14.1281 16.3812 16.6473 13.9765 16.6473 10.9952C16.6473 8.01396 14.1281 5.60928 11.0049 5.60928ZM11.0049 14.4968C8.98662 14.4968 7.33662 12.9265 7.33662 10.9952C7.33662 9.06396 8.9817 7.49365 11.0049 7.49365C13.0281 7.49365 14.6732 9.06396 14.6732 10.9952C14.6732 12.9265 13.0232 14.4968 11.0049 14.4968ZM18.1942 5.38896C18.1942 6.0874 17.6049 6.64522 16.8781 6.64522C16.1464 6.64522 15.5621 6.08271 15.5621 5.38896C15.5621 4.69521 16.1513 4.13271 16.8781 4.13271C17.6049 4.13271 18.1942 4.69521 18.1942 5.38896ZM21.9312 6.66397C21.8478 4.98115 21.4451 3.49053 20.1536 2.2624C18.867 1.03428 17.3054 0.649902 15.5424 0.565527C13.7254 0.46709 8.27947 0.46709 6.46251 0.565527C4.70448 0.645215 3.14287 1.02959 1.85136 2.25771C0.559842 3.48584 0.162074 4.97646 0.0736815 6.65928C-0.0294433 8.39365 -0.0294433 13.5921 0.0736815 15.3265C0.157164 17.0093 0.559842 18.4999 1.85136 19.728C3.14287 20.9562 4.69957 21.3405 6.46251 21.4249C8.27947 21.5233 13.7254 21.5233 15.5424 21.4249C17.3054 21.3452 18.867 20.9608 20.1536 19.728C21.4402 18.4999 21.8428 17.0093 21.9312 15.3265C22.0344 13.5921 22.0344 8.39834 21.9312 6.66397ZM19.5839 17.1874C19.2009 18.1062 18.4594 18.814 17.492 19.1843C16.0433 19.7327 12.6058 19.6062 11.0049 19.6062C9.40403 19.6062 5.96162 19.728 4.51787 19.1843C3.55537 18.8187 2.81386 18.1108 2.42591 17.1874C1.85136 15.8046 1.98395 12.5233 1.98395 10.9952C1.98395 9.46709 1.85627 6.18115 2.42591 4.80303C2.80895 3.88428 3.55046 3.17646 4.51787 2.80615C5.96653 2.25771 9.40403 2.38428 11.0049 2.38428C12.6058 2.38428 16.0482 2.2624 17.492 2.80615C18.4545 3.17178 19.196 3.87959 19.5839 4.80303C20.1585 6.18584 20.0259 9.46709 20.0259 10.9952C20.0259 12.5233 20.1585 15.8093 19.5839 17.1874Z" fill="#7CCEEF"/>
</svg>
