<svg width="22" height="20" viewBox="0 0 22 20" fill="none" xmlns="http://www.w3.org/2000/svg">
<path d="M19.7386 5.11175C19.7525 5.32494 19.7525 5.53817 19.7525 5.75136C19.7525 12.2539 15.2157 19.7463 6.92386 19.7463C4.36928 19.7463 1.9962 18.9391 0 17.5382C0.362957 17.5838 0.711906 17.5991 1.08883 17.5991C3.19666 17.5991 5.13704 16.8224 6.68654 15.4976C4.7043 15.4519 3.04313 14.0356 2.47079 12.0864C2.75 12.132 3.02917 12.1625 3.32234 12.1625C3.72715 12.1625 4.132 12.1016 4.50888 11.995C2.4429 11.5381 0.893363 9.55845 0.893363 7.16759V7.1067C1.49359 7.47219 2.19162 7.70061 2.93141 7.73103C1.71695 6.84777 0.921293 5.34017 0.921293 3.63458C0.921293 2.72089 1.1446 1.88333 1.53549 1.15236C3.75504 4.13713 7.09135 6.08633 10.8324 6.29956C10.7626 5.93408 10.7207 5.55341 10.7207 5.17269C10.7207 2.462 12.7309 0.253906 15.2296 0.253906C16.5278 0.253906 17.7004 0.847813 18.524 1.8072C19.543 1.59402 20.5202 1.18283 21.3857 0.619391C21.0506 1.76155 20.3387 2.72094 19.4035 3.33003C20.3109 3.22348 21.1903 2.94931 21.9999 2.56864C21.3858 3.54322 20.618 4.4112 19.7386 5.11175Z" fill="#7CCEEF"/>
</svg>
